<svg xmlns="http://www.w3.org/2000/svg" version="1.1" width="235" height="199" style=""><rect id="backgroundrect" width="100%" height="100%" x="0" y="0" fill="none" stroke="none"/>





































































































































































































































































































































































































































































































































































































































































































































































<g class="currentLayer" style=""><title>Layer 1</title><path d="M126.638916015625,-0.39111328125 C129.065185125625,-0.37498215125 131.489795215625,-0.39110024125 133.916015625625,-0.41015625125 C157.985699045625,-0.44425058125 180.224173965625,5.84947614875 198.453124995625,22.30078124875 C199.999999995625,23.99999999875 199.999999995625,23.99999999875 199.999999995625,25.99999999875 C198.995820315625,26.48468749875 197.991640625625,26.96937499875 196.957031245625,27.46874999875 C188.946878725625,31.37983810875 181.264253345625,35.50621927875 173.769531245625,40.33593749875 C171.225374675625,41.86458446875 168.784848525625,42.99195610875 165.999999995625,43.99999999875 C164.762499995625,42.51499999875 164.762499995625,42.51499999875 163.499999995625,40.99999999875 C152.917595785625,30.50293775875 137.19755399562501,26.20009359875 122.687499995625,25.62499999875 C113.628753375625,25.89581454875 104.538093935625,27.86631958875 95.679687495625,29.67968749875 C90.10152314562501,30.81396604875 85.576711195625,31.41952648875 79.99999999562499,29.99999999875 C78.78515624562499,27.94531249875 78.78515624562499,27.94531249875 77.99999999562499,25.99999999875 C99.218490065625,16.04721523875 125.343097805625,10.66680452875 148.089843745625,18.71874999875 C152.261842605625,20.55554949875 156.359446965625,22.48092444875 160.378906245625,24.63281249875 C164.085059035625,26.57020461875 164.085059035625,26.57020461875 167.999999995625,27.99999999875 C171.311807325625,26.23718879875 171.311807325625,26.23718879875 173.999999995625,23.99999999875 C166.785114845625,15.37294870875 149.766633645625,12.432407498749999 139.249023435625,11.19409179875 C119.213525935625,9.46501878875 100.436900895625,12.74606152875 81.29687499562499,18.37109374875 C80.50756591562501,18.60014403875 79.718256835625,18.82919433875 78.905029295625,19.06518554875 C77.392760695625,19.50728178875 75.883493605625,19.95984158875 74.378173825625,20.42504882875 C67.886280705625,22.32538806875 61.783284715625,23.17190935875 55.437499995625004,20.49999999875 C54.633124995624996,20.00499999875 53.828749995625,19.50999999875 52.999999995625004,18.99999999875 C52.999999995625004,18.33999999875 52.999999995625004,17.67999999875 52.999999995625004,16.99999999875 C62.934148515625,12.83611221875 72.878638095625,8.83504086875 83.18749999562499,5.68749999875 C83.920009765625,5.45788573875 84.652519535625,5.22827148875 85.407226565625,4.99169921875 C99.021566715625,0.97208733875 112.499259615625,-0.50246040125 126.638916015625,-0.39111328125 z" fill="#ffffff" id="svg_1" class="" fill-opacity="1"/><path d="M97,83 C96.83242187,84.28132813 96.66484375,85.56265625 96.4921875,86.8828125 C94.12921807,106.29681869 96.23906598,122.13077356 107.44921875,138.66015625 C108.82049293,140.72915685 109.91555101,142.77393317 111,145 C103.87365267,146.08785386 96.74671072,147.17175041000002 89.61938477,148.25317382999998 C87.20584183,148.61982238000002 84.79242549,148.98730554 82.37915039,149.35571289 C66.60854709,151.76251119 50.82979067,154.01709473 35,156 C36.5681208,151.81310873 38.40360401,149.11565889000002 41.375,145.75 C53.80759941,131.23500312 67.35001571000001,113.80741022000001 72.25,95.125 C73.64777824000001,90.63849831 74.31430633,89.38008776 78.48828125,87.06640625 C82.25834965,85.6615655 86.05892353,84.78821529 90,84 C90.75152344,83.80019531 91.50304687,83.60039063 92.27734375,83.39453125 C94,83 94,83 97,83 z" fill="#ffffff" id="svg_2" class="" stroke="#dadada" stroke-opacity="1" fill-opacity="1"/><path d="M102,80 C102.66,80.33 103.32,80.66 104,81 C104.03867188,82.52753906 104.03867188,82.52753906 104.078125,84.0859375 C104.83973107,105.47991207999999 109.34340488,125.29385869000001 125,141 C135.31792767000002,149.70909017 135.31792767000002,149.70909017 148,153 C148.42297363,152.01773437999998 148.42297363,152.01773437999998 148.85449219,151.015625 C150.15061504,148.00938429 151.45028095,145.00468758 152.75,142 C153.41515625,140.45505859 153.41515625,140.45505859 154.09375,138.87890625 C156.07500171,134.30454568 158.07174417,129.78925507 160.390625,125.375 C160.92171875,124.26124999999999 161.4528125,123.14750000000001 162,122 C161.67000000000002,121.34 161.34,120.68 161,120 C160.15437500000002,119.773125 159.30875,119.54625 158.4375,119.3125 C152.12026317,116.90046412000001 147.52755721,112.6068784 144.5,106.5625 C144.005,105.386875 143.51,104.21125 143,103 C142.34,103 141.68,103 141,103 C141,102.01 141,101.02 141,100 C139.989375,100.061875 138.97875,100.12375 137.9375,100.1875 C131.19455224,100.22408019 124.55669652,98.43427736 118,97 C118,96.34 118,95.68 118,95 C122.51862263,93.00150987 127.03931457,91.00780682 131.56201172,89.01855469 C133.10100534,88.34083869 134.63942021,87.66180688 136.17724608999998,86.98144531 C138.38489178999998,86.00501401 140.59456015,85.0332986 142.8046875,84.0625 C143.49432587,83.75626709 144.18396423000002,83.45003418 144.89450073,83.13452148 C149.77225658999998,81 149.77225658999998,81 152,81 C152.19916016,82.77117187 152.19916016,82.77117187 152.40234375,84.578125 C152.58058979999998,86.13543262 152.75898293,87.69272342 152.9375,89.25 C153.06801758,90.41595703 153.06801758,90.41595703 153.20117188,91.60546875 C153.28818359000002,92.35957031 153.37519531,93.11367187 153.46484375,93.890625 C153.543396,94.58188477 153.62194824,95.27314453 153.70288086,95.98535156 C154.45934132,101.11461346 156.1368282,104.44093301 160,108 C162.82475913,109.86664161 165.7781596,111.37944916000001 168.8125,112.875 C169.60076171999998,113.2771875 170.38902344000002,113.679375 171.20117188,114.09375 C173.12796959000002,115.0746652 175.06316462,116.03905631 177,117 C175.46518695,122.31281440000001 173.02630422,126.81527499 170.375,131.625 C164.09861564,143.25578159 159.05185569,155.41898808000002 155,168 C137.08758914999999,164.82199162 121.91159174,152.67446818000002 111.3125,138.1875 C107.65726436,132.71736777 104.66283933,127.01156152 102,121 C101.65710938,120.23558593999999 101.31421875,119.47117188 100.9609375,118.68359375 C96.53870985,106.80144001 98.0574184,91.75734155 102,80 z" fill="#ffffff" id="svg_3" class="" fill-opacity="1"/><path d="M154.3359375,39.75 C159.46924817000001,44.00283991 162.57549034,47.78060566 165,54 C165,54.99 165,55.980000000000004 165,57 C164.34,57 163.68,57 163,57 C163,56.34 163,55.68 163,55 C162.30519531,54.72285156 161.61039062,54.44570313 160.89453125,54.16015625 C158.90915764,53.364399219999996 156.92754652,52.55920926 154.94921875,51.74609375 C148.85844743,49.30249089 143.56274507,47.31251167 137,47 C136.09894531,46.94972656 135.19789063,46.89945313 134.26953125,46.84765625 C125.64044073,46.56857829 117.00432601,47.2277743 109.75,52.25 C107.48866429,55.80352755 107.48153042,57.85224337 108,62 C108.63451419,63.67917062 109.29596563999999,65.34877081 110,67 C101.40017311,71.50112257 92.64601897,75.55617987 83.75,79.4375 C82.72575928,79.88657715 81.70151855,80.3356543 80.64624023,80.79833984 C79.68532471,81.21422362999999 78.72440918,81.63010742 77.734375,82.05859375 C76.87038086,82.43298584 76.00638672,82.80737793 75.11621094,83.19311522999999 C73,84 73,84 71,84 C71.61233794,79.47214905 73.41986905,75.7865474 75.5625,71.8125 C75.9138501,71.15556151999999 76.2652002,70.49862304999999 76.62719727,69.82177734 C80.00702103,63.68060078 84.02668848,57.973311519999996 89,53 C84.05,52.01 79.1,51.019999999999996 74,50 C91.8984705,27.62691187 131.29228795,22.4865301 154.3359375,39.75 z" fill="#ffffff" id="svg_4" class="" fill-opacity="1"/><path d="M174,51 C174.66,51 175.32,51 176,51 C184.29133803,61.688833360000004 187.29081375,71.54072851000001 186,85 C184.39362562,92.98649409000001 181.5792822,101.85622572 176,108 C170.69445137,109.85563524 165.95441536,108.25348613 161,106 C157.91411805,103.55788480999999 156.26699508000002,100.94475183 155.1875,97.125 C155.125625,96.42375 155.06375,95.7225 155,95 C155.99,94.67 156.98,94.34 158,94 C156.35,93.34 154.7,92.68 153,92 C153,91.34 153,90.68 153,90 C155.64,89.67 158.28,89.34 161,89 C159.02,85.7 157.04,82.4 155,79 C163.77581817,79.63824131999999 170.23328025,82.34724112 177,88 C177.1690907,85.93769732 177.33517133,83.8751477 177.5,81.8125 C177.5928125,80.66394531 177.685625,79.51539062 177.78125,78.33203125 C177.9645962,75.53927574 178.04213637,72.79680188 178,70 C177.443125,70.26554687000001 176.88625,70.53109375 176.3125,70.8046875 C165.93239225,75.60899413 154.45540239,78.46830725 143.1171875,75.15844727 C131.69229925,71.89046442 122.5109959,74.4344423 111.25,77.3125 C109.40432631,77.76256542 107.55797269,78.20985199 105.7109375,78.65429688 C103.12665678,79.27664751 100.54411444,79.90291219 97.96612549,80.55085754 C92.19999354,82 92.19999354,82 90,82 C91,79 91,79 92.93920898,77.79248047 C93.78298096,77.40463378999999 94.62675293,77.01678711 95.49609375,76.6171875 C96.43904297,76.17600586 97.38199219,75.73482422000001 98.35351562,75.28027344 C99.88008789,74.58466308999999 99.88008789,74.58466308999999 101.4375,73.875 C103.541293,72.90043919 105.64414722,71.92384945 107.74609375,70.9453125 C109.32559814,70.21103027 109.32559814,70.21103027 110.93701172,69.46191406 C113.75709572,68.11593423 116.52490753000001,66.70620437 119.28515625,65.2421875 C120.08574463,64.8208252 120.88633301,64.39946289 121.71118164,63.96533203 C123.19837282,63.17565334 124.67857273999999,62.37261278 126.15014647999999,61.55419922 C132.1832298,58.38619789 136.17580654,59.18624934 142.6875,61.0625 C150.9900002,63.19051947 159.34976369,62.89222549 167,59 C169.89926382,56.47890103 171.87205617,54.19191574 174,51 z" fill="#ffffff" id="svg_5" class="" fill-opacity="1"/><path d="M146,35 C145.67,36.65 145.34,38.3 145,40 C145.66,40.33 146.32,40.66 147,41 C146.22914063,40.84015625 145.45828125,40.6803125 144.6640625,40.515625 C131.10717965999999,38.60783339 115.1602712,38.27042265 103,45.1875 C97.99109741000001,47.9784775 92.56447729,47.33386864 87,47 C86.67,44.69 86.34,42.38 86,40 C104.34456974,29.82406086 126.27778195,25.13889098 146,35 z" fill="#ffffff" id="svg_6" class="" fill-opacity="1"/><path d="M174,64 C174.99,64.66 175.98,65.32 177,66 C177,67.32 177,68.64 177,70 C166.56692253,75.58914865 154.86153822,78.58686672 143.1171875,75.15844727 C131.69229925,71.89046442 122.5109959,74.4344423 111.25,77.3125 C109.40432631,77.76256542 107.55797269,78.20985199 105.7109375,78.65429688 C103.12665678,79.27664751 100.54411444,79.90291219 97.96612549,80.55085754 C92.19999354,82 92.19999354,82 90,82 C90,81.34 90,80.68 90,80 C90.5983667,79.84442627 91.1967334,79.68885254 91.81323242,79.52856445 C104.02649789,76.33244917 116.01651514,73.1365814 127.51953125,67.83984375 C130.34125383,66.88445736 132.18547708,66.93944128 135.125,67.3125 C135.97320312,67.41175781 136.82140625,67.51101562 137.6953125,67.61328125 C140,68 140,68 143,69 C154.15943356,69.7407241 163.80047649,69.09976175 174,64 z" fill="#ffffff" id="svg_7" class="" fill-opacity="1"/><path d="M89,114 C89.33,114 89.66,114 90,114 C90.06316406,114.62003906 90.12632813,115.24007812 90.19140625,115.87890625 C91.42082369,124.76953556 95.00159309,132.07802268 99,140 C90.59374931,141.57708402 82.16403573,142.99697376 73.71801758,144.34204102 C72.26794419000001,144.57444036 70.81840216,144.81017716 69.36938477,145.04907227 C67.24871243999999,145.3984405 65.12660962,145.73743998 63.00390625,146.07421875 C61.75424072,146.27619873 60.504575200000005,146.47817871 59.217041019999996,146.6862793 C56.3842294,146.96253056 54.64237673,146.9435585 52,146 C52.70084717,145.72325439 53.40169434,145.44650879 54.1237793,145.16137695 C57.31714954,143.89169189 60.50222239,142.60234533 63.6875,141.3125 C64.79029297,140.87744141 65.89308593999999,140.44238281 67.02929688,139.99414062 C75.58261634,136.50562664 80.36705432,133.18487069 85,125 C85.89674188,122.37752818 86.67041086,119.75136946 87.38671875,117.07421875 C88,115 88,115 89,114 z" fill="#ffffff" id="svg_8" class="" fill-opacity="1"/><path d="M98,183 C100.3125,185.0625 100.3125,185.0625 102,187 C102.66,185.68 103.32,184.36 104,183 C105.65,183 107.3,183 109,183 C109.99,184.98 110.98,186.96 112,189 C112.66,187.02 113.32,185.04 114,183 C115.65,183 117.3,183 119,183 C118.69177379,185.2922454 118.37829126,187.58378455 118.0625,189.875 C117.88847656,191.15117187 117.71445313,192.42734375 117.53515625,193.7421875 C117,197 117,197 116,199 C113.6875,199.3125 113.6875,199.3125 111,199 C109.1875,196.5 109.1875,196.5 108,194 C107.34,195.65 106.68,197.3 106,199 C104.35,199 102.7,199 101,199 C101,197.68 101,196.36 101,195 C100.2884375,195.99 100.2884375,195.99 99.5625,197 C96.27326467,199.56720805999998 94.17681267,199.44043307 90.12109375,199.43359375 C87.49369813,198.89650183 86.59278712,198.13364007 85,196 C84.4977001,192.67226319 84.28464874,190.23062343 86.01953125,187.24609375 C89.65056267,182.69359212 92.4121204,181.2282333 98,183 zM93,187 C92.01,187.66 91.02,188.32 90,189 C89.74969023,191.58380177 89.74969023,191.58380177 90,194 C93.04913228,195.01111093 93.04913228,195.01111093 96,194 C96.65555119,191.47266765 96.65555119,191.47266765 97,189 C95.68,188.34 94.36,187.68 93,187 z" fill="#ffffff" id="svg_9" class="" fill-opacity="1"/><path d="M37,183 C38.98,183 40.96,183 43,183 C43.99,186.96 44.980000000000004,190.92 46,195 C46.99,191.04 47.980000000000004,187.08 49,183 C50.65,183 52.3,183 54,183 C54.989999999999995,184.98 55.980000000000004,186.96 57,189 C57.66,187.02 58.32,185.04 59,183 C60.65,183 62.3,183 64,183 C63.69177379,185.2922454 63.37829126,187.58378455 63.0625,189.875 C62.88847656,191.15117187 62.71445312,192.42734375 62.53515625,193.7421875 C62,197 62,197 61,199 C57.28400809,199.20086443 56.22791555,199.1519437 53,197 C53,196.01 53,195.02 53,194 C52.34,195.65 51.68,197.3 51,199 C47.37,199 43.74,199 40,199 C40,198.34 40,197.68 40,197 C39.01,197.66 38.02,198.32 37,199 C34.36,199 31.72,199 29,199 C31.64,193.72 34.28,188.44 37,183 z" fill="#ffffff" id="svg_10" class="" fill-opacity="1"/><path d="M0,183 C10.56,183 21.12,183 32,183 C32,184.32 32,185.64 32,187 C30.35,187 28.7,187 27,187 C27.020625,188.051875 27.04125,189.10375 27.0625,190.1875 C27.01103198,193.32704904 26.73482813,195.96883396 26,199 C24.02,199 22.04,199 20,199 C20.66,195.37 21.32,191.74 22,188 C21.01,187.67 20.02,187.34 19,187 C18.01,190.96 17.02,194.92 16,199 C14.35,199 12.7,199 11,199 C11.33,195.04 11.66,191.08 12,187 C10.68,187 9.36,187 8,187 C7.93941406,187.78246094 7.8788281300000005,188.56492187999999 7.81640625,189.37109375 C7.73261719,190.38300781 7.64882812,191.39492187 7.5625,192.4375 C7.48128906,193.44683594 7.40007813,194.45617187 7.31640625,195.49609375 C7,198 7,198 6,199 C4.35,199 2.7,199 1,199 C1.6600000000000001,195.04 2.3200000000000003,191.08 3,187 C2.01,187 1.02,187 0,187 C0,185.68 0,184.36 0,183 z" fill="#ffffff" id="svg_11" class="" fill-opacity="1"/><path d="M134,183 C135.65,183 137.3,183 139,183 C138.34,186.96 137.68,190.92 137,195 C137.99,194.67 138.98,194.34 140,194 C140.13277344,193.28972656 140.26554688,192.57945312 140.40234375,191.84765625 C140.57894531,190.92855469 140.75554687,190.00945312 140.9375,189.0625 C141.11152344,188.14597656 141.28554687,187.22945312 141.46484375,186.28515625 C142,184 142,184 143,183 C144.66617115,182.95936168 146.33388095,182.957279 148,183 C147.67,185.97 147.34,188.94 147,192 C147.66,189.03 148.32,186.06 149,183 C150.65,183 152.3,183 154,183 C153.67000000000002,186.63 153.34,190.26 153,194 C154.32,194.33 155.64,194.66 157,195 C156.67000000000002,196.32 156.34,197.64 156,199 C154.37509046,199.02698189 152.75005367,199.04638757 151.125,199.0625 C149.76761719,199.07990234 149.76761719,199.07990234 148.3828125,199.09765625 C146,199 146,199 144,198 C143.01,198.495 143.01,198.495 142,199 C140.125,199.16796875 140.125,199.16796875 138,199.1875 C136.948125,199.20876953 136.948125,199.20876953 135.875,199.23046875 C134,199 134,199 132,197 C131.65083823,191.76257341 132.02653121,187.93367197 134,183 z" fill="#ffffff" id="svg_12" class="" fill-opacity="1"/><path d="M160,122 C160,125.45329964 159.16528405,127.09343094 157.6640625,130.18359375 C156.93316406,131.69856445 156.93316406,131.69856445 156.1875,133.24414062 C155.671875,134.29794922 155.15625,135.35175781 154.625,136.4375 C154.11710937,137.48744141 153.60921875,138.53738281 153.0859375,139.61914062 C151.08106632,143.75814441 149.06372832,147.88999179 147,152 C145.35,152 143.7,152 142,152 C142,151.34 142,150.68 142,150 C140.68,150 139.36,150 138,150 C135.75,148 135.75,148 134,146 C135.51398078,142.18511059 137.72997068,140.36923371 140.9375,137.875 C146.10364668,133.77207085 150.95780767,129.45672974000001 155.78515625,124.96875 C158,123 158,123 160,122 z" fill="#ffffff" id="svg_13" class="" fill-opacity="1"/><path d="M145,39 C145.66,39.66 146.32,40.32 147,41 C145.84371094,40.76023437 145.84371094,40.76023437 144.6640625,40.515625 C131.10717965999999,38.60783339 115.1602712,38.27042265 103,45.1875 C97.99109741000001,47.9784775 92.56447729,47.33386864 87,47 C87,46.34 87,45.68 87,45 C105.17078015,35.31775948 125.18851649999999,29.92249753 145,39 z" fill="#ffffff" id="svg_14" class="" fill-opacity="1"/><path d="M188,183 C190.25,182.6875 190.25,182.6875 193,183 C195.3125,185.5 195.3125,185.5 197,188 C197.33,186.35 197.66,184.7 198,183 C199.65,183 201.3,183 203,183 C202.85833643,184.91697937 202.71150416,186.83357723 202.5625,188.75 C202.48128906,189.81734375 202.40007812,190.8846875 202.31640625,191.984375 C202.05909227,194.43679962 201.68187782,196.63921291 201,199 C198.1875,199.25 198.1875,199.25 195,199 C193.125,197 193.125,197 192,195 C191.67,196.32 191.34,197.64 191,199 C189.35,199 187.7,199 186,199 C185.67,195.7 185.34,192.4 185,189 C185.66,188.67 186.32,188.34 187,188 C187.65555119,185.47266765 187.65555119,185.47266765 188,183 z" fill="#ffffff" id="svg_15" class="" fill-opacity="1"/><path d="M129,183 C129.99,183.66 130.98,184.32 132,185 C132,186.32 132,187.64 132,189 C131.01,189.33 130.02,189.66 129,190 C129.99,191.485 129.99,191.485 131,193 C130.75,195.625 130.75,195.625 130,198 C127.77109005,199.11445498 126.46944894,199.16480286 124,199.1875 C122.948125,199.20876953 122.948125,199.20876953 121.875,199.23046875 C120,199 120,199 118,197 C117.875,193.875 117.875,193.875 118,191 C118.33,191.66 118.66,192.32 119,193 C119,192.01 119,191.02 119,190 C119.25,186.9375 119.25,186.9375 120,184 C123.03835725,181.50420654 125.37040774,181.88320238 129,183 zM124,187 C124.33,187.66 124.66,188.32 125,189 C125.66,188.67 126.32,188.34 127,188 C126.01,187.67 125.02,187.34 124,187 zM122,193 C122.33,193.66 122.66,194.32 123,195 C123.99,194.67 124.98,194.34 126,194 C124.68,193.67 123.36,193.34 122,193 z" fill="#ffffff" id="svg_16" class="" fill-opacity="1"/><path d="M180.375,182.375 C181.24125,182.58125 182.1075,182.7875 183,183 C183.33895655999999,184.72807318 183.67091525,186.45751974 184,188.1875 C184.185625,189.15042969 184.37125,190.11335937 184.5625,191.10546875 C184.96877612,193.7934206 185.07933572,196.28771019 185,199 C183.35,199 181.7,199 180,199 C180,198.34 180,197.68 180,197 C179.113125,197.33 178.22625,197.66 177.3125,198 C174.29076653,198.91222143 172.11626294,199.18330958 169,199 C170.63537798,192.78556367 173.5161827,183.64515135 180.375,182.375 zM178,190 C177.67,190.99 177.34,191.98 177,193 C177.66,193 178.32,193 179,193 C178.67,192.01 178.34,191.02 178,190 z" fill="#ffffff" id="svg_17" class="" fill-opacity="1"/><path d="M83,184 C84.375,186.625 84.375,186.625 85,189 C81.66666667,189 78.33333333,189 75,189 C74.67,190.65 74.34,192.3 74,194 C77.3,193.67 80.6,193.34 84,193 C82,197 82,197 80,199 C76.95970005,199.49614003 74.04594763,199.43990834 71,199 C68.875,197.4375 68.875,197.4375 68,195 C68,190.55648995 68.52698214,188.57260057 71.375,185.125 C75.71399774,181.61247802 78.02982839,181.67353669 83,184 z" fill="#ffffff" id="svg_18" class="" fill-opacity="1"/><path d="M217,184 C219,186 219,186 219,189 C215.95613276,189.08226668 213.92824652,188.97608217 211,188 C210.01,188.495 210.01,188.495 209,189 C209,190.65 209,192.3 209,194 C212.3,193.67 215.6,193.34 219,193 C216.25,197.875 216.25,197.875 214,199 C206.85404504,199.45371143 206.85404504,199.45371143 204,197.9375 C202.35856363,194.75721703 202.52267687,192.52025809 203,189 C204.72056329,185.93439319 206.80663301,183.5966835 210,182 C212.72215804,182 214.57887967,182.78943983 217,184 z" fill="#ffffff" id="svg_19" class="" fill-opacity="1"/><path d="M220,183 C221.98,183 223.96,183 226,183 C226.33,184.32 226.66,185.64 227,187 C227.391875,186.34 227.78375,185.68 228.1875,185 C230,183 230,183 232.6875,182.75 C233.8321875,182.87375 233.8321875,182.87375 235,183 C233.89407668,186.04128913 232.58262406,188.78672704 230.9375,191.5625 C229.4391943,194.22078431 228.47198038,196.0501226 228,199 C226.35,199 224.7,199 223,199 C222.86722656,198.26394531 222.73445312,197.52789062 222.59765625,196.76953125 C222.42105469,195.79371094 222.24445313,194.81789062000001 222.0625,193.8125 C221.80146484,192.36810547 221.80146484,192.36810547 221.53515625,190.89453125 C221.0476265,188.25760028 220.53328895,185.6280095 220,183 z" fill="#ffffff" id="svg_20" class="" fill-opacity="1"/><path d="M158,183 C162.62,183 167.24,183 172,183 C171.67,184.32 171.34,185.64 171,187 C169.68,187 168.36,187 167,187 C166.93941406,187.69867188 166.87882813,188.39734375 166.81640625,189.1171875 C166.73261718999998,190.02726563 166.64882812,190.93734375 166.5625,191.875 C166.48128906,192.77992188 166.40007812,193.68484375 166.31640625,194.6171875 C166,197 166,197 165,199 C163.35,199 161.7,199 160,199 C160.66,195.04 161.32,191.08 162,187 C160.68,187 159.36,187 158,187 C158,185.68 158,184.36 158,183 z" fill="#ffffff" id="svg_21" class="" fill-opacity="1"/><path d="M155,97 C159.75,98.875 159.75,98.875 162,100 C163.85361708,100.04514136 165.70873663,100.03867042 167.5625,100 C169.37460781,99.96229685 171.18809744,99.95346639 173,100 C174,101 174,101 174.09765625,102.84765625 C174.06510417,104.8984375 174.03255208,106.94921875 174,109 C166.9060294,108.15427753 161.90570614,107.40885549000001 157,102 C155.625,99.1875 155.625,99.1875 155,97 z" fill="#ffffff" id="svg_22" class="" fill-opacity="1"/><path d="M143,94 C143.125,97.375 143.125,97.375 143,101 C142.34,101.66 141.68,102.32 141,103 C141,102.01 141,101.02 141,100 C139.989375,100.061875 138.97875,100.12375 137.9375,100.1875 C131.19455224,100.22408019 124.55669652,98.43427736 118,97 C118.33,96.34 118.66,95.68 119,95 C121.80859375,94.5859375 121.80859375,94.5859375 125.4375,94.375 C127.32662109,94.26478516 127.32662109,94.26478516 129.25390625,94.15234375 C133.84083994,93.96580526 138.41054216,93.90482691 143,94 z" fill="#ffffff" id="svg_23" class="" fill-opacity="1"/><path d="M112,35 C134.50700186,34.19217142 134.50700186,34.19217142 145,39 C145.66,39.66 146.32,40.32 147,41 C146.13721436,40.84007568 145.27442871,40.68015137 144.38549805,40.51538086 C141.15948104,40.02427811 138.09148168000002,39.82899015 134.83203125,39.75390625 C133.69185547,39.72103516 132.55167969000001,39.68816406 131.37695312,39.654296880000004 C128.98903689,39.59279985 126.60100774,39.53554873 124.21289062,39.482421880000004 C123.07658203,39.44826172 121.94027344,39.41410156 120.76953125,39.37890625 C119.73417236,39.3538501 118.69881348,39.32879395 117.63208008,39.302978519999996 C115,39 115,39 112,37 C112,36.34 112,35.68 112,35 z" fill="#ffffff" id="svg_24" class="" fill-opacity="1"/><path d="M124,72 C120.49382436,75.50617564 116.75908657,76.41996116 111.9921875,77.5078125 C110.84105468999999,77.77207031 109.68992187,78.03632812000001 108.50390625,78.30859375 C107.30636719,78.57800781 106.10882813,78.84742187 104.875,79.125 C103.66972656,79.40214844 102.46445313,79.67929688 101.22265625,79.96484375 C92.29002463,82 92.29002463,82 90,82 C90,81.34 90,80.68 90,80 C90.61931396,79.83395264 91.23862793,79.66790527 91.87670897999999,79.49682617 C94.73106111999999,78.72983044 97.58427841,77.95869024 100.4375,77.1875 C101.41138672,76.92646484 102.38527343999999,76.66542969 103.38867188,76.39648438 C108.73155297,74.9490818 113.96028819,73.39229087 119.14477539,71.4465332 C121,71 121,71 124,72 z" fill="#ffffff" id="svg_25" class="" fill-opacity="1"/><path d="M140,68 C140,68.33 140,68.66 140,69 C139.05125,69.103125 138.1025,69.20625 137.125,69.3125 C133.70892499,69.68539295 133.70892499,69.68539295 132,73 C129.3984375,73.51171875 129.3984375,73.51171875 126.375,73.6875 C124.87066406,73.78611328 124.87066406,73.78611328 123.3359375,73.88671875 C122.17964844,73.94279297 122.17964844,73.94279297 121,74 C121.28515625,72.11328125 121.28515625,72.11328125 122,70 C128.27233133,66.69277075 133.11242715,66.82854806 140,68 z" fill="#ffffff" id="svg_26" class="" fill-opacity="1"/><path d="M71,139 C71,139.66 71,140.32 71,141 C69.02,141.99 69.02,141.99 67,143 C67.33,143.66 67.66,144.32 68,145 C62.72,145.66 57.44,146.32 52,147 C55.65559745,144.25830191 58.409252179999996,142.89697407 62.625,141.3125 C63.77226563,140.87550781 64.91953125,140.43851563 66.1015625,139.98828125 C69,139 69,139 71,139 z" fill="#ffffff" id="svg_27" class="" fill-opacity="1"/><path d="M157,81 C160.09862934,82.3786853 162.24123432,83.97023198 164.625,86.375 C165.21539062,86.96023437 165.80578125,87.54546875 166.4140625,88.1484375 C168.00893774,90.0104347 169.00698978,91.76818495 170,94 C167.07318406,93.67479823 165.30439436,93.23060179 162.9375,91.4375 C160.37462752,88.21324108 158.70389391,84.73406537 157,81 z" fill="#ffffff" id="svg_28" class="" fill-opacity="1"/><path d="M155,97 C159.75,98.875 159.75,98.875 162,100 C163.87379605,100.07033769 165.75001102,100.0843022 167.625,100.0625 C168.62789062,100.05347656000001 169.63078125,100.04445313 170.6640625,100.03515625 C171.82035156,100.01775391 171.82035156,100.01775391 173,100 C172.67000000000002,101.32 172.34,102.64 172,104 C172,103.34 172,102.68 172,102 C170.5199159,102.11362262 169.04089926,102.24122908 167.5625,102.375 C166.73878906,102.44460937 165.91507813,102.51421875 165.06640625,102.5859375 C164.04353516,102.79089844 164.04353516,102.79089844 163,103 C162.67,103.66 162.34,104.32 162,105 C158.70851757,103.86500606 158.0040131,103.00716624 156.25,99.875 C155.8375,98.92625 155.425,97.9775 155,97 z" fill="#ffffff" id="svg_29" class="" fill-opacity="1"/><path d="M89,114 C89.33,114 89.66,114 90,114 C90.33,117.63 90.66,121.26 91,125 C89.35,124.67 87.7,124.34 86,124 C86.30798326,122.51988629 86.621518,121.04092675 86.9375,119.5625 C87.11152344,118.73878906 87.28554687,117.91507812 87.46484375,117.06640625 C88,115 88,115 89,114 z" fill="#ffffff" id="svg_30" class="" fill-opacity="1"/><path d="M44,192 C44.33,192 44.66,192 45,192 C45,193.65 45,195.3 45,197 C47.97,197.495 47.97,197.495 51,198 C51,198.33 51,198.66 51,199 C47.37,199 43.74,199 40,199 C40,198.34 40,197.68 40,197 C38.68,196.67 37.36,196.34 36,196 C37.65,196 39.3,196 41,196 C41,196.66 41,197.32 41,198 C41.66,197.67 42.32,197.34 43,197 C43.65555119,194.47266765 43.65555119,194.47266765 44,192 z" fill="#ffffff" id="svg_31" class="" fill-opacity="1"/><path d="M105,76 C96.86149584,80.38227147 96.86149584,80.38227147 92.8125,79.55078125 C92.214375,79.36902344 91.61625000000001,79.18726562 91,79 C100.41002278,74.22323462 100.41002278,74.22323462 105,76 z" fill="#ffffff" id="svg_32" class="" fill-opacity="1"/><path d="M97,87 C97.66,87.33 98.32,87.66 99,88 C98.88601335,89.62580966 98.75844341,91.25067157 98.625,92.875 C98.52058594,94.23238281 98.52058594,94.23238281 98.4140625,95.6171875 C98,98 98,98 96,100 C95.9727585,98.58344207 95.95349533,97.16672955 95.9375,95.75 C95.92589844,94.96109375 95.91429688,94.1721875 95.90234375,93.359375 C95.99614694,91.09308998 96.36758937,89.1711105 97,87 z" fill="#ffffff" id="svg_33" class="" fill-opacity="1"/><path d="M112,14 C119.59,14 127.18,14 135,14 C135,14.33 135,14.66 135,15 C127.41,15 119.82,15 112,15 C112,14.67 112,14.34 112,14 z" fill="#ffffff" id="svg_34" class="" fill-opacity="1"/><path d="M213,193 C214.98,193 216.96,193 219,193 C217.625,195.5 217.625,195.5 216,198 C215.34,198 214.68,198 214,198 C213.67,196.35 213.34,194.7 213,193 z" fill="#ffffff" id="svg_35" class="" fill-opacity="1"/><path d="M111,27 C116.61,27.33 122.22,27.66 128,28 C128,28.33 128,28.66 128,29 C125.91695462,29.05418326 123.83350232,29.09287551 121.75,29.125 C120.00976562,29.15980469 120.00976562,29.15980469 118.234375,29.1953125 C115,29 115,29 111,27 z" fill="#ffffff" id="svg_36" class="" fill-opacity="1"/><path d="M146,77 C148.45862401,76.94616152 150.9160755,76.90640962 153.375,76.875 C154.42300781,76.84986328 154.42300781,76.84986328 155.4921875,76.82421875 C157.32897486,76.80655733 159.16601963,76.89696739 161,77 C161.66,77.66 162.32,78.32 163,79 C157.39,78.67 151.78,78.34 146,78 C146,77.67 146,77.34 146,77 z" fill="#ffffff" id="svg_37" class="" fill-opacity="1"/><path d="M132,39 C134.97,39 137.94,39 141,39 C141,39.99 141,40.98 141,42 C136.545,41.01 136.545,41.01 132,40 C132,39.67 132,39.34 132,39 z" fill="#ffffff" id="svg_38" class="" fill-opacity="1"/><path d="M157,103 C161.5,106 161.5,106 166,109 C161.32409833,109 160.30350614,108.11997802 157,105 C157,104.34 157,103.68 157,103 z" fill="#ffffff" id="svg_39" class="" fill-opacity="1"/><path d="M105,82 C105.33,82 105.66,82 106,82 C106,87.28 106,92.56 106,98 C105.67,98 105.34,98 105,98 C105,92.72 105,87.44 105,82 z" fill="#ffffff" id="svg_40" class="" fill-opacity="1"/><path d="M96,103 C96.99,103.495 96.99,103.495 98,104 C98.125,106.875 98.125,106.875 98,110 C97.34,110.66 96.68,111.32 96,112 C96,109.03 96,106.06 96,103 z" fill="#ffffff" id="svg_41" class="" fill-opacity="1"/><path d="M110,70 C107.03,71.32 104.06,72.64 101,74 C100.67,73.34 100.34,72.68 100,72 C106.625,68.875 106.625,68.875 110,70 z" fill="#ffffff" id="svg_42" class="" fill-opacity="1"/><path d="M120,11 C124.29,11 128.58,11 133,11 C133,11.33 133,11.66 133,12 C128.71,12 124.42,12 120,12 C120,11.67 120,11.34 120,11 z" fill="#ffffff" id="svg_43" class="" fill-opacity="1"/><path d="M159,181 C162.96,181 166.92,181 171,181 C171,181.33 171,181.66 171,182 C167.04,182 163.08,182 159,182 C159,181.67 159,181.34 159,181 z" fill="#ffffff" id="svg_44" class="" fill-opacity="1"/><path d="M0,181 C3.96,181 7.92,181 12,181 C12,181.33 12,181.66 12,182 C8.04,182 4.08,182 0,182 C0,181.67 0,181.34 0,181 z" fill="#ffffff" id="svg_45" class="" fill-opacity="1"/><path d="M20,181 C23.63,181 27.259999999999998,181 31,181 C31,181.33 31,181.66 31,182 C27.37,182 23.740000000000002,182 20,182 C20,181.67 20,181.34 20,181 z" fill="#ffffff" id="svg_46" class="" fill-opacity="1"/><path d="M18,190 C20.1519437,193.22791555 20.20086443,194.28400809 20,198 C17.8480563,194.77208445 17.79913557,193.71599191 18,190 z" fill="#ffffff" id="svg_47" class="" fill-opacity="1"/><path d="M117,26 C120.3,26 123.6,26 127,26 C127,26.33 127,26.66 127,27 C123.7,27 120.4,27 117,27 C117,26.67 117,26.34 117,26 z" fill="#ffffff" id="svg_48" class="" fill-opacity="1"/><path d="M46,186 C46.33,186 46.66,186 47,186 C47,187.65 47,189.3 47,191 C46.01,191.495 46.01,191.495 45,192 C45.33,190.02 45.66,188.04 46,186 z" fill="#ffffff" id="svg_49" class="" fill-opacity="1"/><path d="M140,183 C140.33,183 140.66,183 141,183 C140.67,185.31 140.34,187.62 140,190 C139.06576355,186.98968256 138.95550089,186.13349732 140,183 z" fill="#ffffff" id="svg_50" class="" fill-opacity="1"/><path d="M59,23 C61.97,23 64.94,23 68,23 C68,23.33 68,23.66 68,24 C65.03,24 62.06,24 59,24 C59,23.67 59,23.34 59,23 z" fill="#ffffff" id="svg_51" class="" fill-opacity="1"/><path d="M221,191 C221.33,191 221.66,191 222,191 C222,193.64 222,196.28 222,199 C221.67,199 221.34,199 221,199 C221,196.36 221,193.72 221,191 z" fill="#ffffff" id="svg_52" class="" fill-opacity="1"/><path d="M209,189 C209.99,189.495 209.99,189.495 211,190 C210.67,190.99 210.34,191.98 210,193 C210.66,193.33 211.32,193.66 212,194 C211.01,194 210.02,194 209,194 C209,192.35 209,190.7 209,189 z" fill="#ffffff" id="svg_53" class="" fill-opacity="1"/><path d="M91,189 C91.99,189.495 91.99,189.495 93,190 C92.67,190.99 92.34,191.98 92,193 C92.66,193.33 93.32,193.66 94,194 C93.01,194 92.02,194 91,194 C91,192.35 91,190.7 91,189 z" fill="#ffffff" id="svg_54" class="" fill-opacity="1"/><path d="M33,183 C33.66,184.32 34.32,185.64 35,187 C34.34,187.66 33.68,188.32 33,189 C33,187.02 33,185.04 33,183 z" fill="#ffffff" id="svg_55" class="" fill-opacity="1"/><path d="M98,111 C98.33,112.32 98.66,113.64 99,115 C98.01,115.495 98.01,115.495 97,116 C97.33,114.35 97.66,112.7 98,111 z" fill="#ffffff" id="svg_56" class="" fill-opacity="1"/><path d="M187,74 C187.33,74 187.66,74 188,74 C188,76.64 188,79.28 188,82 C187.67,82 187.34,82 187,82 C187,79.36 187,76.72 187,74 z" fill="#ffffff" id="svg_57" class="" fill-opacity="1"/><path d="M100,73 C100,73.66 100,74.32 100,75 C98.68,75.33 97.36,75.66 96,76 C96,75.34 96,74.68 96,74 C98,73 98,73 100,73 z" fill="#ffffff" id="svg_58" class="" fill-opacity="1"/><path d="M127,47 C129.64,47 132.28,47 135,47 C135,47.33 135,47.66 135,48 C132.36,48 129.72,48 127,48 C127,47.67 127,47.34 127,47 z" fill="#ffffff" id="svg_59" class="" fill-opacity="1"/><path d="M8,194 C8.99,194.495 8.99,194.495 10,195 C9.67,196.32 9.34,197.64 9,199 C8.67,197.35 8.34,195.7 8,194 z" fill="#ffffff" id="svg_60" class="" fill-opacity="1"/><path d="M173,183 C173.66,183.66 174.32,184.32 175,185 C174.01,186.485 174.01,186.485 173,188 C172.67,187.34 172.34,186.68 172,186 C172.33,185.01 172.66,184.02 173,183 z" fill="#ffffff" id="svg_61" class="" fill-opacity="1"/><path d="M168.5625,108.9375 C169.7690625,108.9684375 169.7690625,108.9684375 171,109 C169.125,110.0625 169.125,110.0625 167,111 C166.34,110.67 165.68,110.34 165,110 C166,109 166,109 168.5625,108.9375 z" fill="#ffffff" id="svg_62" class="" fill-opacity="1"/><path d="M153,83 C153.33,83 153.66,83 154,83 C154.33,84.98 154.66,86.96 155,89 C154.34,89 153.68,89 153,89 C153,87.02 153,85.04 153,83 z" fill="#ffffff" id="svg_63" class="" fill-opacity="1"/><path d="M150,61 C152.31,61 154.62,61 157,61 C157,61.33 157,61.66 157,62 C154.69,62 152.38,62 150,62 C150,61.67 150,61.34 150,61 z" fill="#ffffff" id="svg_64" class="" fill-opacity="1"/><path d="M192,195 C192.66,196.32 193.32,197.64 194,199 C193.34,199 192.68,199 192,199 C192,197.68 192,196.36 192,195 z" fill="#ffffff" id="svg_65" class="" fill-opacity="1"/><path d="M83,190 C83.33,190.66 83.66,191.32 84,192 C82.35,192 80.7,192 79,192 C80.32,191.34 81.64,190.68 83,190 z" fill="#ffffff" id="svg_66" class="" fill-opacity="1"/><path d="M19,188 C19.66,188 20.32,188 21,188 C21,189.65 21,191.3 21,193 C19,189.125 19,189.125 19,188 z" fill="#ffffff" id="svg_67" class="" fill-opacity="1"/><path d="M28,188 C28.99,188.33 29.98,188.66 31,189 C30.34,189 29.68,189 29,189 C28.67,189.99 28.34,190.98 28,192 C28,190.68 28,189.36 28,188 z" fill="#ffffff" id="svg_68" class="" fill-opacity="1"/><path d="M195,184 C195.66,184 196.32,184 197,184 C196.67,185.32 196.34,186.64 196,188 C195.67,186.68 195.34,185.36 195,184 z" fill="#ffffff" id="svg_69" class="" fill-opacity="1"/><path d="M37,156 C38.98,156 40.96,156 43,156 C43,156.33 43,156.66 43,157 C41.019999999999996,157 39.04,157 37,157 C37,156.67 37,156.34 37,156 z" fill="#ffffff" id="svg_70" class="" fill-opacity="1"/><path d="M58,153 C59.98,153 61.96,153 64,153 C64,153.33 64,153.66 64,154 C62.019999999999996,154 60.04,154 58,154 C58,153.67 58,153.34 58,153 z" fill="#ffffff" id="svg_71" class="" fill-opacity="1"/><path d="M79,150 C80.98,150 82.96,150 85,150 C85,150.33 85,150.66 85,151 C83.02,151 81.04,151 79,151 C79,150.67 79,150.34 79,150 z" fill="#ffffff" id="svg_72" class="" fill-opacity="1"/><path d="M85,149 C86.98,149 88.96,149 91,149 C91,149.33 91,149.66 91,150 C89.02,150 87.04,150 85,150 C85,149.67 85,149.34 85,149 z" fill="#ffffff" id="svg_73" class="" fill-opacity="1"/><path d="M106,98 C106.33,98 106.66,98 107,98 C107,99.98 107,101.96 107,104 C106.67,104 106.34,104 106,104 C106,102.02 106,100.04 106,98 z" fill="#ffffff" id="svg_74" class="" fill-opacity="1"/><path d="M126,100 C127.98,100 129.96,100 132,100 C132,100.33 132,100.66 132,101 C130.02,101 128.04,101 126,101 C126,100.67 126,100.34 126,100 z" fill="#ffffff" id="svg_75" class="" fill-opacity="1"/><path d="M79,52 C80.98,52 82.96,52 85,52 C85,52.33 85,52.66 85,53 C83.02,53 81.04,53 79,53 C79,52.67 79,52.34 79,52 z" fill="#ffffff" id="svg_76" class="" fill-opacity="1"/><path d="M128,27 C129.98,27 131.96,27 134,27 C134,27.33 134,27.66 134,28 C132.02,28 130.04,28 128,28 C128,27.67 128,27.34 128,27 z" fill="#ffffff" id="svg_77" class="" fill-opacity="1"/><path d="M27,195 C27.66,195.66 28.32,196.32 29,197 C28.34,197.66 27.68,198.32 27,199 C27,197.68 27,196.36 27,195 z" fill="#ffffff" id="svg_78" class="" fill-opacity="1"/><path d="M63,192 C63.33,192 63.66,192 64,192 C64,193.65 64,195.3 64,197 C63.67,197 63.34,197 63,197 C63,195.35 63,193.7 63,192 z" fill="#ffffff" id="svg_79" class="" fill-opacity="1"/><path d="M159,191 C159.33,191 159.66,191 160,191 C160,192.65 160,194.3 160,196 C159.67,196 159.34,196 159,196 C159,194.35 159,192.7 159,191 z" fill="#ffffff" id="svg_80" class="" fill-opacity="1"/><path d="M138,191 C138.99,191.495 138.99,191.495 140,192 C140,192.66 140,193.32 140,194 C139.34,194 138.68,194 138,194 C138,193.01 138,192.02 138,191 z" fill="#ffffff" id="svg_81" class="" fill-opacity="1"/><path d="M213,191 C214.65,191 216.3,191 218,191 C218,191.33 218,191.66 218,192 C216.35,192 214.7,192 213,192 C213,191.67 213,191.34 213,191 z" fill="#ffffff" id="svg_82" class="" fill-opacity="1"/><path d="M112,183 C112.33,183.66 112.66,184.32 113,185 C112.34,185.66 111.68,186.32 111,187 C111.33,185.68 111.66,184.36 112,183 z" fill="#ffffff" id="svg_83" class="" fill-opacity="1"/><path d="M177,181 C178.65,181 180.3,181 182,181 C182,181.33 182,181.66 182,182 C180.35,182 178.7,182 177,182 C177,181.67 177,181.34 177,181 z" fill="#ffffff" id="svg_84" class="" fill-opacity="1"/><path d="M104,181 C105.65,181 107.3,181 109,181 C109,181.33 109,181.66 109,182 C107.35,182 105.7,182 104,182 C104,181.67 104,181.34 104,181 z" fill="#ffffff" id="svg_85" class="" fill-opacity="1"/><path d="M49,181 C50.65,181 52.3,181 54,181 C54,181.33 54,181.66 54,182 C52.35,182 50.7,182 49,182 C49,181.67 49,181.34 49,181 z" fill="#ffffff" id="svg_86" class="" fill-opacity="1"/><path d="M37,181 C38.65,181 40.3,181 42,181 C42,181.33 42,181.66 42,182 C40.35,182 38.7,182 37,182 C37,181.67 37,181.34 37,181 z" fill="#ffffff" id="svg_87" class="" fill-opacity="1"/><path d="M43,155 C44.65,155 46.3,155 48,155 C48,155.33 48,155.66 48,156 C46.35,156 44.7,156 43,156 C43,155.67 43,155.34 43,155 z" fill="#ffffff" id="svg_88" class="" fill-opacity="1"/><path d="M51,154 C52.65,154 54.3,154 56,154 C56,154.33 56,154.66 56,155 C54.35,155 52.7,155 51,155 C51,154.67 51,154.34 51,154 z" fill="#ffffff" id="svg_89" class="" fill-opacity="1"/><path d="M64,152 C65.65,152 67.3,152 69,152 C69,152.33 69,152.66 69,153 C67.35,153 65.7,153 64,153 C64,152.67 64,152.34 64,152 z" fill="#ffffff" id="svg_90" class="" fill-opacity="1"/><path d="M70,151 C71.65,151 73.3,151 75,151 C75,151.33 75,151.66 75,152 C73.35,152 71.7,152 70,152 C70,151.67 70,151.34 70,151 z" fill="#ffffff" id="svg_91" class="" fill-opacity="1"/><path d="M91,148 C92.65,148 94.3,148 96,148 C96,148.33 96,148.66 96,149 C94.35,149 92.7,149 91,149 C91,148.67 91,148.34 91,148 z" fill="#ffffff" id="svg_92" class="" fill-opacity="1"/><path d="M135,101 C136.65,101 138.3,101 140,101 C140,101.33 140,101.66 140,102 C138.35,102 136.7,102 135,102 C135,101.67 135,101.34 135,101 z" fill="#ffffff" id="svg_93" class="" fill-opacity="1"/><path d="M121,99 C122.65,99 124.3,99 126,99 C126,99.33 126,99.66 126,100 C124.35,100 122.7,100 121,100 C121,99.67 121,99.34 121,99 z" fill="#ffffff" id="svg_94" class="" fill-opacity="1"/><path d="M176,83 C176.33,83.99 176.66,84.98 177,86 C176.01,86.495 176.01,86.495 175,87 C175.33,85.68 175.66,84.36 176,83 z" fill="#ffffff" id="svg_95" class="" fill-opacity="1"/><path d="M129,29 C130.65,29 132.3,29 134,29 C134,29.33 134,29.66 134,30 C132.35,30 130.7,30 129,30 C129,29.67 129,29.34 129,29 z" fill="#ffffff" id="svg_96" class="" fill-opacity="1"/><path d="M109,29 C110.65,29 112.3,29 114,29 C114,29.33 114,29.66 114,30 C112.35,30 110.7,30 109,30 C109,29.67 109,29.34 109,29 z" fill="#ffffff" id="svg_97" class="" fill-opacity="1"/><path d="M104,28 C105.65,28 107.3,28 109,28 C109,28.33 109,28.66 109,29 C107.35,29 105.7,29 104,29 C104,28.67 104,28.34 104,28 z" fill="#ffffff" id="svg_98" class="" fill-opacity="1"/><path d="M140,12 C141.65,12 143.3,12 145,12 C145,12.33 145,12.66 145,13 C143.35,13 141.7,13 140,13 C140,12.67 140,12.34 140,12 z" fill="#ffffff" id="svg_99" class="" fill-opacity="1"/><path d="M107,12 C108.65,12 110.3,12 112,12 C112,12.33 112,12.66 112,13 C110.35,13 108.7,13 107,13 C107,12.67 107,12.34 107,12 z" fill="#ffffff" id="svg_100" class="" fill-opacity="1"/><path d="M99,0 C100.65,0 102.3,0 104,0 C104,0.33000000000000007 104,0.6600000000000001 104,1 C102.35,1 100.7,1 99,1 C99,0.6700000000000002 99,0.3400000000000001 99,0 z" fill="#ffffff" id="svg_101" class="" fill-opacity="1"/><path d="M0,193 C1,197 1,197 1,197 z" fill="#ffffff" id="svg_102" class="" fill-opacity="1"/><path d="M167,191 C168,195 168,195 168,195 z" fill="#ffffff" id="svg_103" class="" fill-opacity="1"/><path d="M66,191 C67,195 67,195 67,195 z" fill="#ffffff" id="svg_104" class="" fill-opacity="1"/><path d="M10,191 C11,195 11,195 11,195 z" fill="#ffffff" id="svg_105" class="" fill-opacity="1"/><path d="M154,187 C155,191 155,191 155,191 z" fill="#ffffff" id="svg_106" class="" fill-opacity="1"/><path d="M64,187 C65,191 65,191 65,191 z" fill="#ffffff" id="svg_107" class="" fill-opacity="1"/><path d="M184,185 C185,189 185,189 185,189 z" fill="#ffffff" id="svg_108" class="" fill-opacity="1"/><path d="M9,188 C9.99,188.33 10.98,188.66 12,189 C11.01,189.33 10.02,189.66 9,190 C9,189.34 9,188.68 9,188 z" fill="#ffffff" id="svg_109" class="" fill-opacity="1"/><path d="M186,184 C187,188 187,188 187,188 z" fill="#ffffff" id="svg_110" class="" fill-opacity="1"/><path d="M102,183 C102,186 102,186 102,186 z" fill="#ffffff" id="svg_111" class="" fill-opacity="1"/><path d="M230,181 C234,182 234,182 234,182 z" fill="#ffffff" id="svg_112" class="" fill-opacity="1"/><path d="M221,181 C225,182 225,182 225,182 z" fill="#ffffff" id="svg_113" class="" fill-opacity="1"/><path d="M189,181 C193,182 193,182 193,182 z" fill="#ffffff" id="svg_114" class="" fill-opacity="1"/><path d="M143,181 C147,182 147,182 147,182 z" fill="#ffffff" id="svg_115" class="" fill-opacity="1"/><path d="M134,181 C138,182 138,182 138,182 z" fill="#ffffff" id="svg_116" class="" fill-opacity="1"/><path d="M114,181 C118,182 118,182 118,182 z" fill="#ffffff" id="svg_117" class="" fill-opacity="1"/><path d="M59,181 C63,182 63,182 63,182 z" fill="#ffffff" id="svg_118" class="" fill-opacity="1"/><path d="M14,181 C18,182 18,182 18,182 z" fill="#ffffff" id="svg_119" class="" fill-opacity="1"/><path d="M101,147 C105,148 105,148 105,148 z" fill="#ffffff" id="svg_120" class="" fill-opacity="1"/><path d="M106,146 C110,147 110,147 110,147 z" fill="#ffffff" id="svg_121" class="" fill-opacity="1"/><path d="M130,144 C130.99,144 131.98,144 133,144 C132.67,144.66 132.34,145.32 132,146 C131.34,145.34 130.68,144.68 130,144 z" fill="#ffffff" id="svg_122" class="" fill-opacity="1"/><path d="M105,79 C109,80 109,80 109,80 z" fill="#ffffff" id="svg_123" class="" fill-opacity="1"/><path d="M161,76 C165,77 165,77 165,77 z" fill="#ffffff" id="svg_124" class="" fill-opacity="1"/><path d="M141,76 C145,77 145,77 145,77 z" fill="#ffffff" id="svg_125" class="" fill-opacity="1"/><path d="M122,75 C126,76 126,76 126,76 z" fill="#ffffff" id="svg_126" class="" fill-opacity="1"/><path d="M128,74 C132,75 132,75 132,75 z" fill="#ffffff" id="svg_127" class="" fill-opacity="1"/><path d="M85,53 C85.99,53.33 86.98,53.66 88,54 C87.01,54 86.02,54 85,54 C85,53.67 85,53.34 85,53 z" fill="#ffffff" id="svg_128" class="" fill-opacity="1"/><path d="M140,48 C144,49 144,49 144,49 z" fill="#ffffff" id="svg_129" class="" fill-opacity="1"/><path d="M105,30 C109,31 109,31 109,31 z" fill="#ffffff" id="svg_130" class="" fill-opacity="1"/><path d="M138,15 C142,16 142,16 142,16 z" fill="#ffffff" id="svg_131" class="" fill-opacity="1"/><path d="M105,15 C109,16 109,16 109,16 z" fill="#ffffff" id="svg_132" class="" fill-opacity="1"/><path d="M149,14 C153,15 153,15 153,15 z" fill="#ffffff" id="svg_133" class="" fill-opacity="1"/><path d="M145,13 C149,14 149,14 149,14 z" fill="#ffffff" id="svg_134" class="" fill-opacity="1"/><path d="M102,13 C106,14 106,14 106,14 z" fill="#ffffff" id="svg_135" class="" fill-opacity="1"/><path d="M89,2 C93,3 93,3 93,3 z" fill="#ffffff" id="svg_136" class="" fill-opacity="1"/><path d="M154,0 C158,1 158,1 158,1 z" fill="#ffffff" id="svg_137" class="" fill-opacity="1"/><path d="M99,197 C99.33,197.66 99.66,198.32 100,199 C99.34,198.67 98.68,198.34 98,198 C98.33,197.67 98.66,197.34 99,197 z" fill="#ffffff" id="svg_138" class="" fill-opacity="1"/><path d="" fill="#3E6373" id="svg_139"/><path d="" fill="#3B6E83" id="svg_140"/><path d="" fill="#36667E" id="svg_141"/><path d="" fill="#387997" id="svg_142"/><path d="M168,188 C171,189 171,189 171,189 z" fill="#ffffff" id="svg_143" class="" fill-opacity="1"/><path d="" fill="#3B6C7F" id="svg_144"/><path d="" fill="#295F75" id="svg_145"/><path d="M208,181 C211,182 211,182 211,182 z" fill="#ffffff" id="svg_146" class="" fill-opacity="1"/><path d="M199,181 C202,182 202,182 202,182 z" fill="#ffffff" id="svg_147" class="" fill-opacity="1"/><path d="M150,181 C153,182 153,182 153,182 z" fill="#ffffff" id="svg_148" class="" fill-opacity="1"/><path d="M90,181 C93,182 93,182 93,182 z" fill="#ffffff" id="svg_149" class="" fill-opacity="1"/><path d="M79,181 C82,182 82,182 82,182 z" fill="#ffffff" id="svg_150" class="" fill-opacity="1"/><path d="M152,169 C155,170 155,170 155,170 z" fill="#0F1E28" id="svg_151"/><path d="" fill="#0A304C" id="svg_152"/><path d="M171,110 C174,111 174,111 174,111 z" fill="#ffffff" id="svg_153" class="" fill-opacity="1"/><path d="" fill="#0C2940" id="svg_154"/><path d="" fill="#323671" id="svg_155"/><path d="" fill="#08283C" id="svg_156"/><path d="" fill="#293946" id="svg_157"/><path d="" fill="#06294A" id="svg_158"/><path d="" fill="#0C2943" id="svg_159"/><path d="" fill="#082E46" id="svg_160"/><path d="M80,85 C83,86 83,86 83,86 z" fill="#ffffff" id="svg_161" class="" fill-opacity="1"/><path d="M163,79 C166,80 166,80 166,80 z" fill="#ffffff" id="svg_162" class="" fill-opacity="1"/><path d="M109,78 C112,79 112,79 112,79 z" fill="#ffffff" id="svg_163" class="" fill-opacity="1"/><path d="M115,77 C118,78 118,78 118,78 z" fill="#ffffff" id="svg_164" class="" fill-opacity="1"/><path d="M119,76 C122,77 122,77 122,77 z" fill="#ffffff" id="svg_165" class="" fill-opacity="1"/><path d="M138,75 C141,76 141,76 141,76 z" fill="#ffffff" id="svg_166" class="" fill-opacity="1"/><path d="" fill="#0A293E" id="svg_167"/><path d="M142,60 C145,61 145,61 145,61 z" fill="#ffffff" id="svg_168" class="" fill-opacity="1"/><path d="" fill="#0B2742" id="svg_169"/><path d="M139,59 C142,60 142,60 142,60 z" fill="#ffffff" id="svg_170" class="" fill-opacity="1"/><path d="M136,58 C139,59 139,59 139,59 z" fill="#ffffff" id="svg_171" class="" fill-opacity="1"/><path d="M132,57 C135,58 135,58 135,58 z" fill="#ffffff" id="svg_172" class="" fill-opacity="1"/><path d="M148,50 C151,51 151,51 151,51 z" fill="#ffffff" id="svg_173" class="" fill-opacity="1"/><path d="M145,49 C148,50 148,50 148,50 z" fill="#ffffff" id="svg_174" class="" fill-opacity="1"/><path d="M119,48 C122,49 122,49 122,49 z" fill="#ffffff" id="svg_175" class="" fill-opacity="1"/><path d="M92,31 C95,32 95,32 95,32 z" fill="#ffffff" id="svg_176" class="" fill-opacity="1"/><path d="M134,30 C137,31 137,31 137,31 z" fill="#ffffff" id="svg_177" class="" fill-opacity="1"/><path d="M96,30 C99,31 99,31 99,31 z" fill="#ffffff" id="svg_178" class="" fill-opacity="1"/><path d="M140,29 C143,30 143,30 143,30 z" fill="#ffffff" id="svg_179" class="" fill-opacity="1"/><path d="M100,29 C103,30 103,30 103,30 z" fill="#ffffff" id="svg_180" class="" fill-opacity="1"/><path d="M136,28 C139,29 139,29 139,29 z" fill="#ffffff" id="svg_181" class="" fill-opacity="1"/><path d="M172,22 C172.66,22.66 173.32,23.32 174,24 C173.34,24 172.68,24 172,24 C172,23.34 172,22.68 172,22 z" fill="#ffffff" id="svg_182" class="" fill-opacity="1"/><path d="M68,22 C71,23 71,23 71,23 z" fill="#ffffff" id="svg_183" class="" fill-opacity="1"/><path d="M76,20 C79,21 79,21 79,21 z" fill="#ffffff" id="svg_184" class="" fill-opacity="1"/><path d="M90,19 C93,20 93,20 93,20 z" fill="#ffffff" id="svg_185" class="" fill-opacity="1"/><path d="M93,18 C96,19 96,19 96,19 z" fill="#ffffff" id="svg_186" class="" fill-opacity="1"/><path d="M98,17 C101,18 101,18 101,18 z" fill="#ffffff" id="svg_187" class="" fill-opacity="1"/><path d="M86,17 C89,18 89,18 89,18 z" fill="#ffffff" id="svg_188" class="" fill-opacity="1"/><path d="M142,16 C145,17 145,17 145,17 z" fill="#ffffff" id="svg_189" class="" fill-opacity="1"/><path d="M101,16 C104,17 104,17 104,17 z" fill="#ffffff" id="svg_190" class="" fill-opacity="1"/><path d="M89,16 C92,17 92,17 92,17 z" fill="#ffffff" id="svg_191" class="" fill-opacity="1"/><path d="M92,15 C95,16 95,16 95,16 z" fill="#ffffff" id="svg_192" class="" fill-opacity="1"/><path d="M98,14 C101,15 101,15 101,15 z" fill="#ffffff" id="svg_193" class="" fill-opacity="1"/><path d="M76,6 C79,7 79,7 79,7 z" fill="#ffffff" id="svg_194" class="" fill-opacity="1"/><path d="M83,4 C86,5 86,5 86,5 z" fill="#ffffff" id="svg_195" class="" fill-opacity="1"/><path d="M86,3 C89,4 89,4 89,4 z" fill="#ffffff" id="svg_196" class="" fill-opacity="1"/><path d="M160,1 C163,2 163,2 163,2 z" fill="#ffffff" id="svg_197" class="" fill-opacity="1"/><path d="" fill="#317288" id="svg_198"/><path d="" fill="#38718A" id="svg_199"/><path d="" fill="#347590" id="svg_200"/><path d="" fill="#2F6F88" id="svg_201"/><path d="" fill="#347C9B" id="svg_202"/><path d="M83,196 C85,197 85,197 85,197 z" fill="#ffffff" id="svg_203" class="" fill-opacity="1"/><path d="" fill="#3F7491" id="svg_204"/><path d="" fill="#1D7592" id="svg_205"/><path d="M75,193 C77,194 77,194 77,194 z" fill="#ffffff" id="svg_206" class="" fill-opacity="1"/><path d="" fill="#337388" id="svg_207"/><path d="" fill="#327187" id="svg_208"/><path d="" fill="#2D768C" id="svg_209"/><path d="" fill="#317995" id="svg_210"/><path d="M211,188 C213,189 213,189 213,189 z" fill="#ffffff" id="svg_211" class="" fill-opacity="1"/><path d="M159,188 C161,189 161,189 161,189 z" fill="#ffffff" id="svg_212" class="" fill-opacity="1"/><path d="M93,188 C95,189 95,189 95,189 z" fill="#ffffff" id="svg_213" class="" fill-opacity="1"/><path d="M76,188 C78,189 78,189 78,189 z" fill="#ffffff" id="svg_214" class="" fill-opacity="1"/><path d="M0,188 C2,189 2,189 2,189 z" fill="#ffffff" id="svg_215" class="" fill-opacity="1"/><path d="" fill="#3E7993" id="svg_216"/><path d="" fill="#1F7493" id="svg_217"/><path d="" fill="#2C687F" id="svg_218"/><path d="" fill="#326E8C" id="svg_219"/><path d="" fill="#317495" id="svg_220"/><path d="M120,182 C122,183 122,183 122,183 z" fill="#ffffff" id="svg_221" class="" fill-opacity="1"/><path d="M98,182 C100,183 100,183 100,183 z" fill="#ffffff" id="svg_222" class="" fill-opacity="1"/><path d="M72,182 C74,183 74,183 74,183 z" fill="#ffffff" id="svg_223" class="" fill-opacity="1"/><path d="M214,181 C216,182 216,182 216,182 z" fill="#ffffff" id="svg_224" class="" fill-opacity="1"/><path d="M127,181 C129,182 129,182 129,182 z" fill="#ffffff" id="svg_225" class="" fill-opacity="1"/><path d="M122,181 C124,182 124,182 124,182 z" fill="#ffffff" id="svg_226" class="" fill-opacity="1"/><path d="M96,181 C98,182 98,182 98,182 z" fill="#ffffff" id="svg_227" class="" fill-opacity="1"/><path d="M74,181 C76,182 76,182 76,182 z" fill="#ffffff" id="svg_228" class="" fill-opacity="1"/><path d="M150,168 C152,169 152,169 152,169 z" fill="#082C45" id="svg_229"/><path d="" fill="#082538" id="svg_230"/><path d="M146,167 C148,168 148,168 148,168 z" fill="#0E2B41" id="svg_231"/><path d="M144,166 C146,167 146,167 146,167 z" fill="#ffffff" id="svg_232" class="" fill-opacity="1"/><path d="M142,165 C144,166 144,166 144,166 z" fill="#ffffff" id="svg_233" class="" fill-opacity="1"/><path d="" fill="#092842" id="svg_234"/><path d="M140,164 C142,165 142,165 142,165 z" fill="#ffffff" id="svg_235" class="" fill-opacity="1"/><path d="M136,162 C138,163 138,163 138,163 z" fill="#ffffff" id="svg_236" class="" fill-opacity="1"/><path d="" fill="#09293D" id="svg_237"/><path d="" fill="#152B3A" id="svg_238"/><path d="" fill="#0A283D" id="svg_239"/><path d="M127,156 C129,157 129,157 129,157 z" fill="#ffffff" id="svg_240" class="" fill-opacity="1"/><path d="" fill="#182D3C" id="svg_241"/><path d="" fill="#0F2F47" id="svg_242"/><path d="" fill="#0F2B3F" id="svg_243"/><path d="" fill="#082942" id="svg_244"/><path d="" fill="#09294B" id="svg_245"/><path d="" fill="#0E2F4A" id="svg_246"/><path d="" fill="#062A4A" id="svg_247"/><path d="" fill="#12304D" id="svg_248"/><path d="" fill="#052B44" id="svg_249"/><path d="" fill="#0F2944" id="svg_250"/><path d="" fill="#0C2740" id="svg_251"/><path d="" fill="#032B47" id="svg_252"/><path d="" fill="#092943" id="svg_253"/><path d="" fill="#082945" id="svg_254"/><path d="" fill="#0D304C" id="svg_255"/><path d="" fill="#092A40" id="svg_256"/><path d="" fill="#082D4A" id="svg_257"/><path d="" fill="#052B48" id="svg_258"/><path d="" fill="#042844" id="svg_259"/><path d="" fill="#062B45" id="svg_260"/><path d="" fill="#052C44" id="svg_261"/><path d="" fill="#052D48" id="svg_262"/><path d="" fill="#12324B" id="svg_263"/><path d="M151,127 C153,128 153,128 153,128 z" fill="#ffffff" id="svg_264" class="" fill-opacity="1"/><path d="" fill="#032D4D" id="svg_265"/><path d="" fill="#082D4A" id="svg_266"/><path d="" fill="#10314F" id="svg_267"/><path d="" fill="#123553" id="svg_268"/><path d="" fill="#052844" id="svg_269"/><path d="" fill="#0A2B40" id="svg_270"/><path d="" fill="#0E283E" id="svg_271"/><path d="" fill="#062B44" id="svg_272"/><path d="" fill="#083055" id="svg_273"/><path d="" fill="#0B2843" id="svg_274"/><path d="" fill="#062B47" id="svg_275"/><path d="" fill="#10273B" id="svg_276"/><path d="M155,119 C157,120 157,120 157,120 z" fill="#ffffff" id="svg_277" class="" fill-opacity="1"/><path d="" fill="#042C49" id="svg_278"/><path d="" fill="#03263D" id="svg_279"/><path d="" fill="#0F263B" id="svg_280"/><path d="M152,117 C154,118 154,118 154,118 z" fill="#ffffff" id="svg_281" class="" fill-opacity="1"/><path d="" fill="#092C49" id="svg_282"/><path d="" fill="#0B2A46" id="svg_283"/><path d="" fill="#032B46" id="svg_284"/><path d="M174,114 C176,115 176,115 176,115 z" fill="#ffffff" id="svg_285" class="" fill-opacity="1"/><path d="M171,113 C173,114 173,114 173,114 z" fill="#ffffff" id="svg_286" class="" fill-opacity="1"/><path d="" fill="#092D45" id="svg_287"/><path d="" fill="#092A43" id="svg_288"/><path d="" fill="#092D45" id="svg_289"/><path d="" fill="#082B41" id="svg_290"/><path d="" fill="#142B3C" id="svg_291"/><path d="" fill="#102D46" id="svg_292"/><path d="" fill="#0A2A47" id="svg_293"/><path d="" fill="#062E4E" id="svg_294"/><path d="" fill="#5A7285" id="svg_295"/><path d="" fill="#102D44" id="svg_296"/><path d="" fill="#0D2A48" id="svg_297"/><path d="M118,98 C120,99 120,99 120,99 z" fill="#ffffff" id="svg_298" class="" fill-opacity="1"/><path d="" fill="#072C45" id="svg_299"/><path d="" fill="#0E2D48" id="svg_300"/><path d="M154,93 C156,94 156,94 156,94 z" fill="#ffffff" id="svg_301" class="" fill-opacity="1"/><path d="M119,93 C121,94 121,94 121,94 z" fill="#ffffff" id="svg_302" class="" fill-opacity="1"/><path d="M121,92 C123,93 123,93 123,93 z" fill="#ffffff" id="svg_303" class="" fill-opacity="1"/><path d="M123,91 C125,92 125,92 125,92 z" fill="#ffffff" id="svg_304" class="" fill-opacity="1"/><path d="" fill="#B7BABA" id="svg_305"/><path d="M78,86 C80,87 80,87 80,87 z" fill="#ffffff" id="svg_306" class="" fill-opacity="1"/><path d="M136,85 C138,86 138,86 138,86 z" fill="#ffffff" id="svg_307" class="" fill-opacity="1"/><path d="M71,85 C73,86 73,86 73,86 z" fill="#ffffff" id="svg_308" class="" fill-opacity="1"/><path d="M83,84 C85,85 85,85 85,85 z" fill="#ffffff" id="svg_309" class="" fill-opacity="1"/><path d="M74,84 C76,85 76,85 76,85 z" fill="#ffffff" id="svg_310" class="" fill-opacity="1"/><path d="M141,83 C143,84 143,84 143,84 z" fill="#ffffff" id="svg_311" class="" fill-opacity="1"/><path d="M88,83 C90,84 90,84 90,84 z" fill="#ffffff" id="svg_312" class="" fill-opacity="1"/><path d="M76,83 C78,84 78,84 78,84 z" fill="#ffffff" id="svg_313" class="" fill-opacity="1"/><path d="" fill="#0C2943" id="svg_314"/><path d="M143,82 C145,83 145,83 145,83 z" fill="#ffffff" id="svg_315" class="" fill-opacity="1"/><path d="M92,82 C94,83 94,83 94,83 z" fill="#ffffff" id="svg_316" class="" fill-opacity="1"/><path d="M169,81 C171,82 171,82 171,82 z" fill="#ffffff" id="svg_317" class="" fill-opacity="1"/><path d="M145,81 C147,82 147,82 147,82 z" fill="#ffffff" id="svg_318" class="" fill-opacity="1"/><path d="M98,81 C100,82 100,82 100,82 z" fill="#ffffff" id="svg_319" class="" fill-opacity="1"/><path d="M80,81 C82,82 82,82 82,82 z" fill="#ffffff" id="svg_320" class="" fill-opacity="1"/><path d="M166,80 C168,81 168,81 168,81 z" fill="#ffffff" id="svg_321" class="" fill-opacity="1"/><path d="M148,80 C150,81 150,81 150,81 z" fill="#ffffff" id="svg_322" class="" fill-opacity="1"/><path d="M83,80 C85,81 85,81 85,81 z" fill="#ffffff" id="svg_323" class="" fill-opacity="1"/><path d="M150,79 C152,80 152,80 152,80 z" fill="#ffffff" id="svg_324" class="" fill-opacity="1"/><path d="M91,76 C93,77 93,77 93,77 z" fill="#ffffff" id="svg_325" class="" fill-opacity="1"/><path d="" fill="#062A47" id="svg_326"/><path d="M166,75 C168,76 168,76 168,76 z" fill="#ffffff" id="svg_327" class="" fill-opacity="1"/><path d="M93,75 C95,76 95,76 95,76 z" fill="#ffffff" id="svg_328" class="" fill-opacity="1"/><path d="M170,74 C172,75 172,75 172,75 z" fill="#ffffff" id="svg_329" class="" fill-opacity="1"/><path d="M134,74 C136,75 136,75 136,75 z" fill="#ffffff" id="svg_330" class="" fill-opacity="1"/><path d="M172,73 C174,74 174,74 174,74 z" fill="#ffffff" id="svg_331" class="" fill-opacity="1"/><path d="M132,73 C134,74 134,74 134,74 z" fill="#ffffff" id="svg_332" class="" fill-opacity="1"/><path d="" fill="#0C2940" id="svg_333"/><path d="M175,71 C177,72 177,72 177,72 z" fill="#ffffff" id="svg_334" class="" fill-opacity="1"/><path d="" fill="#072B42" id="svg_335"/><path d="M110,68 C112,69 112,69 112,69 z" fill="#ffffff" id="svg_336" class="" fill-opacity="1"/><path d="" fill="#162730" id="svg_337"/><path d="M114,66 C116,67 116,67 116,67 z" fill="#ffffff" id="svg_338" class="" fill-opacity="1"/><path d="M116,65 C118,66 118,66 118,66 z" fill="#ffffff" id="svg_339" class="" fill-opacity="1"/><path d="" fill="#082A47" id="svg_340"/><path d="" fill="#0E2E45" id="svg_341"/><path d="M118,64 C120,65 120,65 120,65 z" fill="#ffffff" id="svg_342" class="" fill-opacity="1"/><path d="M120,63 C122,64 122,64 122,64 z" fill="#ffffff" id="svg_343" class="" fill-opacity="1"/><path d="" fill="#072942" id="svg_344"/><path d="M122,62 C124,63 124,63 124,63 z" fill="#ffffff" id="svg_345" class="" fill-opacity="1"/><path d="" fill="#072A4A" id="svg_346"/><path d="M161,60 C163,61 163,61 163,61 z" fill="#ffffff" id="svg_347" class="" fill-opacity="1"/><path d="M163,59 C165,60 165,60 165,60 z" fill="#ffffff" id="svg_348" class="" fill-opacity="1"/><path d="M128,59 C130,60 130,60 130,60 z" fill="#ffffff" id="svg_349" class="" fill-opacity="1"/><path d="M165,58 C167,59 167,59 167,59 z" fill="#ffffff" id="svg_350" class="" fill-opacity="1"/><path d="" fill="#0F273B" id="svg_351"/><path d="" fill="#062438" id="svg_352"/><path d="" fill="#0C2842" id="svg_353"/><path d="" fill="#052B47" id="svg_354"/><path d="" fill="#0F2E48" id="svg_355"/><path d="M156,53 C158,54 158,54 158,54 z" fill="#ffffff" id="svg_356" class="" fill-opacity="1"/><path d="M154,52 C156,53 156,53 156,53 z" fill="#ffffff" id="svg_357" class="" fill-opacity="1"/><path d="M151,51 C153,52 153,52 153,52 z" fill="#ffffff" id="svg_358" class="" fill-opacity="1"/><path d="M114,50 C116,51 116,51 116,51 z" fill="#ffffff" id="svg_359" class="" fill-opacity="1"/><path d="M116,49 C118,50 118,50 118,50 z" fill="#ffffff" id="svg_360" class="" fill-opacity="1"/><path d="M166,45 C168,46 168,46 168,46 z" fill="#ffffff" id="svg_361" class="" fill-opacity="1"/><path d="M168,44 C170,45 170,45 170,45 z" fill="#ffffff" id="svg_362" class="" fill-opacity="1"/><path d="M79,42 C81,43 81,43 81,43 z" fill="#ffffff" id="svg_363" class="" fill-opacity="1"/><path d="M174,40 C176,41 176,41 176,41 z" fill="#ffffff" id="svg_364" class="" fill-opacity="1"/><path d="M85,38 C87,39 87,39 87,39 z" fill="#ffffff" id="svg_365" class="" fill-opacity="1"/><path d="M179,37 C181,38 181,38 181,38 z" fill="#ffffff" id="svg_366" class="" fill-opacity="1"/><path d="M89,36 C91,37 91,37 91,37 z" fill="#ffffff" id="svg_367" class="" fill-opacity="1"/><path d="M154,35 C156,36 156,36 156,36 z" fill="#ffffff" id="svg_368" class="" fill-opacity="1"/><path d="M184,34 C186,35 186,35 186,35 z" fill="#ffffff" id="svg_369" class="" fill-opacity="1"/><path d="M152,34 C154,35 154,35 154,35 z" fill="#ffffff" id="svg_370" class="" fill-opacity="1"/><path d="M93,34 C95,35 95,35 95,35 z" fill="#ffffff" id="svg_371" class="" fill-opacity="1"/><path d="M150,33 C152,34 152,34 152,34 z" fill="#ffffff" id="svg_372" class="" fill-opacity="1"/><path d="M144,33 C146,34 146,34 146,34 z" fill="#ffffff" id="svg_373" class="" fill-opacity="1"/><path d="M96,33 C98,34 98,34 98,34 z" fill="#ffffff" id="svg_374" class="" fill-opacity="1"/><path d="M187,32 C189,33 189,33 189,33 z" fill="#ffffff" id="svg_375" class="" fill-opacity="1"/><path d="M142,32 C144,33 144,33 144,33 z" fill="#ffffff" id="svg_376" class="" fill-opacity="1"/><path d="M98,32 C100,33 100,33 100,33 z" fill="#ffffff" id="svg_377" class="" fill-opacity="1"/><path d="M189,31 C191,32 191,32 191,32 z" fill="#ffffff" id="svg_378" class="" fill-opacity="1"/><path d="M140,31 C142,32 142,32 142,32 z" fill="#ffffff" id="svg_379" class="" fill-opacity="1"/><path d="M101,31 C103,32 103,32 103,32 z" fill="#ffffff" id="svg_380" class="" fill-opacity="1"/><path d="M80,31 C82,32 82,32 82,32 z" fill="#ffffff" id="svg_381" class="" fill-opacity="1"/><path d="M143,30 C145,31 145,31 145,31 z" fill="#ffffff" id="svg_382" class="" fill-opacity="1"/><path d="M193,29 C195,30 195,30 195,30 z" fill="#ffffff" id="svg_383" class="" fill-opacity="1"/><path d="M195,28 C197,29 197,29 197,29 z" fill="#ffffff" id="svg_384" class="" fill-opacity="1"/><path d="M198,27 C200,28 200,28 200,28 z" fill="#ffffff" id="svg_385" class="" fill-opacity="1"/><path d="M166,27 C168,28 168,28 168,28 z" fill="#ffffff" id="svg_386" class="" fill-opacity="1"/><path d="" fill="#0B2549" id="svg_387"/><path d="M163,25 C165,26 165,26 165,26 z" fill="#ffffff" id="svg_388" class="" fill-opacity="1"/><path d="M159,23 C161,24 161,24 161,24 z" fill="#ffffff" id="svg_389" class="" fill-opacity="1"/><path d="M80,23 C82,24 82,24 82,24 z" fill="#ffffff" id="svg_390" class="" fill-opacity="1"/><path d="M82,22 C84,23 84,23 84,23 z" fill="#ffffff" id="svg_391" class="" fill-opacity="1"/><path d="M57,22 C59,23 59,23 59,23 z" fill="#ffffff" id="svg_392" class="" fill-opacity="1"/><path d="M169,21 C171,22 171,22 171,22 z" fill="#ffffff" id="svg_393" class="" fill-opacity="1"/><path d="M84,21 C86,22 86,22 86,22 z" fill="#ffffff" id="svg_394" class="" fill-opacity="1"/><path d="M74,21 C76,22 76,22 76,22 z" fill="#ffffff" id="svg_395" class="" fill-opacity="1"/><path d="M167,20 C169,21 169,21 169,21 z" fill="#ffffff" id="svg_396" class="" fill-opacity="1"/><path d="M153,20 C155,21 155,21 155,21 z" fill="#ffffff" id="svg_397" class="" fill-opacity="1"/><path d="M88,20 C90,21 90,21 90,21 z" fill="#ffffff" id="svg_398" class="" fill-opacity="1"/><path d="M151,19 C153,20 153,20 153,20 z" fill="#ffffff" id="svg_399" class="" fill-opacity="1"/><path d="M79,19 C81,20 81,20 81,20 z" fill="#ffffff" id="svg_400" class="" fill-opacity="1"/><path d="M163,18 C165,19 165,19 165,19 z" fill="#ffffff" id="svg_401" class="" fill-opacity="1"/><path d="M149,18 C151,19 151,19 151,19 z" fill="#ffffff" id="svg_402" class="" fill-opacity="1"/><path d="M83,18 C85,19 85,19 85,19 z" fill="#ffffff" id="svg_403" class="" fill-opacity="1"/><path d="M160,17 C162,18 162,18 162,18 z" fill="#ffffff" id="svg_404" class="" fill-opacity="1"/><path d="M145,17 C147,18 147,18 147,18 z" fill="#ffffff" id="svg_405" class="" fill-opacity="1"/><path d="M192,16 C194,17 194,17 194,17 z" fill="#ffffff" id="svg_406" class="" fill-opacity="1"/><path d="M158,16 C160,17 160,17 160,17 z" fill="#ffffff" id="svg_407" class="" fill-opacity="1"/><path d="M155,15 C157,16 157,16 157,16 z" fill="#ffffff" id="svg_408" class="" fill-opacity="1"/><path d="M53,15 C55,16 55,16 55,16 z" fill="#ffffff" id="svg_409" class="" fill-opacity="1"/><path d="M189,14 C191,15 191,15 191,15 z" fill="#ffffff" id="svg_410" class="" fill-opacity="1"/><path d="M56,14 C58,15 58,15 58,15 z" fill="#ffffff" id="svg_411" class="" fill-opacity="1"/><path d="M58,13 C60,14 60,14 60,14 z" fill="#ffffff" id="svg_412" class="" fill-opacity="1"/><path d="M60,12 C62,13 62,13 62,13 z" fill="#ffffff" id="svg_413" class="" fill-opacity="1"/><path d="M62,11 C64,12 64,12 64,12 z" fill="#ffffff" id="svg_414" class="" fill-opacity="1"/><path d="M181,9 C183,10 183,10 183,10 z" fill="#ffffff" id="svg_415" class="" fill-opacity="1"/><path d="M68,9 C70,10 70,10 70,10 z" fill="#ffffff" id="svg_416" class="" fill-opacity="1"/><path d="M70,8 C72,9 72,9 72,9 z" fill="#ffffff" id="svg_417" class="" fill-opacity="1"/><path d="M74,7 C76,8 76,8 76,8 z" fill="#ffffff" id="svg_418" class="" fill-opacity="1"/><path d="M175,6 C177,7 177,7 177,7 z" fill="#ffffff" id="svg_419" class="" fill-opacity="1"/><path d="M173,5 C175,6 175,6 175,6 z" fill="#ffffff" id="svg_420" class="" fill-opacity="1"/><path d="M79,5 C81,6 81,6 81,6 z" fill="#ffffff" id="svg_421" class="" fill-opacity="1"/><path d="M169,4 C171,5 171,5 171,5 z" fill="#ffffff" id="svg_422" class="" fill-opacity="1"/><path d="M167,3 C169,4 169,4 169,4 z" fill="#ffffff" id="svg_423" class="" fill-opacity="1"/><path d="M164,2 C166,3 166,3 166,3 z" fill="#ffffff" id="svg_424" class="" fill-opacity="1"/><path d="M94,1 C96,2 96,2 96,2 z" fill="#ffffff" id="svg_425" class="" fill-opacity="1"/><path d="" fill="#566262" id="svg_426"/><path d="" fill="#4D626D" id="svg_427"/><path d="" fill="#43616E" id="svg_428"/><path d="" fill="#357286" id="svg_429"/><path d="" fill="#446173" id="svg_430"/><path d="" fill="#1892B4" id="svg_431"/><path d="" fill="#306C83" id="svg_432"/><path d="" fill="#1E7991" id="svg_433"/><path d="" fill="#1985B3" id="svg_434"/><path d="" fill="#515A5B" id="svg_435"/><path d="" fill="#615955" id="svg_436"/><path d="" fill="#2E708E" id="svg_437"/><path d="" fill="#1D748E" id="svg_438"/><path d="" fill="#2C92B1" id="svg_439"/><path d="" fill="#396E87" id="svg_440"/><path d="" fill="#45616C" id="svg_441"/><path d="" fill="#4A6877" id="svg_442"/><path d="" fill="#417D94" id="svg_443"/><path d="" fill="#2E708A" id="svg_444"/><path d="" fill="#486670" id="svg_445"/><path d="" fill="#396E85" id="svg_446"/><path d="" fill="#257993" id="svg_447"/><path d="" fill="#307B96" id="svg_448"/><path d="" fill="#176986" id="svg_449"/><path d="" fill="#3C7584" id="svg_450"/><path d="" fill="#277687" id="svg_451"/><path d="" fill="#2B728A" id="svg_452"/><path d="" fill="#3C6C7A" id="svg_453"/><path d="" fill="#1C7DA1" id="svg_454"/><path d="" fill="#247190" id="svg_455"/><path d="" fill="#396F81" id="svg_456"/><path d="" fill="#2E6678" id="svg_457"/><path d="" fill="#23738F" id="svg_458"/><path d="" fill="#29748D" id="svg_459"/><path d="" fill="#2D6F8B" id="svg_460"/><path d="" fill="#3B7185" id="svg_461"/><path d="" fill="#2E7591" id="svg_462"/><path d="" fill="#3283A7" id="svg_463"/><path d="" fill="#2D7691" id="svg_464"/><path d="" fill="#34758A" id="svg_465"/><path d="" fill="#376983" id="svg_466"/><path d="" fill="#327089" id="svg_467"/><path d="" fill="#31718B" id="svg_468"/><path d="" fill="#367391" id="svg_469"/><path d="" fill="#1D86AE" id="svg_470"/><path d="" fill="#347B97" id="svg_471"/><path d="" fill="#256B88" id="svg_472"/><path d="" fill="#2C7487" id="svg_473"/><path d="" fill="#29758B" id="svg_474"/><path d="" fill="#376F8E" id="svg_475"/><path d="" fill="#257090" id="svg_476"/><path d="" fill="#237188" id="svg_477"/><path d="" fill="#36718D" id="svg_478"/><path d="" fill="#2C718C" id="svg_479"/><path d="" fill="#3481A2" id="svg_480"/><path d="" fill="#3F84A6" id="svg_481"/><path d="" fill="#2A748B" id="svg_482"/><path d="" fill="#326E85" id="svg_483"/><path d="" fill="#297196" id="svg_484"/><path d="" fill="#2C7490" id="svg_485"/><path d="" fill="#33738D" id="svg_486"/><path d="" fill="#101E29" id="svg_487"/><path d="" fill="#13292D" id="svg_488"/><path d="" fill="#042845" id="svg_489"/><path d="" fill="#022945" id="svg_490"/><path d="" fill="#112E42" id="svg_491"/><path d="" fill="#0F2738" id="svg_492"/><path d="" fill="#0B2B44" id="svg_493"/><path d="" fill="#10202F" id="svg_494"/><path d="" fill="#10263C" id="svg_495"/><path d="" fill="#0E233A" id="svg_496"/><path d="" fill="#0C263D" id="svg_497"/><path d="" fill="#032744" id="svg_498"/><path d="" fill="#082A45" id="svg_499"/><path d="" fill="#082846" id="svg_500"/><path d="" fill="#082F4B" id="svg_501"/><path d="" fill="#032B4B" id="svg_502"/><path d="" fill="#0A2840" id="svg_503"/><path d="" fill="#062B45" id="svg_504"/><path d="" fill="#052948" id="svg_505"/><path d="" fill="#073251" id="svg_506"/><path d="" fill="#032B4F" id="svg_507"/><path d="" fill="#16394F" id="svg_508"/><path d="" fill="#092B46" id="svg_509"/><path d="" fill="#09284B" id="svg_510"/><path d="" fill="#072C48" id="svg_511"/><path d="" fill="#072944" id="svg_512"/><path d="" fill="#0B2B44" id="svg_513"/><path d="" fill="#072C48" id="svg_514"/><path d="" fill="#092945" id="svg_515"/><path d="" fill="#062C4A" id="svg_516"/><path d="" fill="#032A48" id="svg_517"/><path d="" fill="#052B40" id="svg_518"/><path d="" fill="#0D2635" id="svg_519"/><path d="" fill="#072942" id="svg_520"/><path d="" fill="#002B4C" id="svg_521"/><path d="" fill="#0B2336" id="svg_522"/><path d="" fill="#032B44" id="svg_523"/><path d="" fill="#052E4C" id="svg_524"/><path d="" fill="#092D48" id="svg_525"/><path d="" fill="#092A3F" id="svg_526"/><path d="" fill="#082A43" id="svg_527"/><path d="" fill="#052E4E" id="svg_528"/><path d="" fill="#0C2C46" id="svg_529"/><path d="" fill="#0E293B" id="svg_530"/><path d="" fill="#032A48" id="svg_531"/><path d="" fill="#0B283E" id="svg_532"/><path d="" fill="#062A4B" id="svg_533"/><path d="" fill="#052A4D" id="svg_534"/><path d="" fill="#062B45" id="svg_535"/><path d="" fill="#10283B" id="svg_536"/><path d="" fill="#032A48" id="svg_537"/><path d="" fill="#0B283E" id="svg_538"/><path d="" fill="#06294D" id="svg_539"/><path d="" fill="#062C4C" id="svg_540"/><path d="" fill="#082A45" id="svg_541"/><path d="" fill="#062C48" id="svg_542"/><path d="" fill="#0C2C46" id="svg_543"/><path d="" fill="#02294E" id="svg_544"/><path d="" fill="#052948" id="svg_545"/><path d="" fill="#092A43" id="svg_546"/><path d="" fill="#0E283D" id="svg_547"/><path d="" fill="#032B4B" id="svg_548"/><path d="" fill="#062B47" id="svg_549"/><path d="" fill="#102839" id="svg_550"/><path d="" fill="#082A45" id="svg_551"/><path d="" fill="#062B45" id="svg_552"/><path d="" fill="#0B2941" id="svg_553"/><path d="" fill="#162731" id="svg_554"/><path d="" fill="#052B4B" id="svg_555"/><path d="" fill="#052B47" id="svg_556"/><path d="" fill="#0B2941" id="svg_557"/><path d="" fill="#082A45" id="svg_558"/><path d="" fill="#0B2A3F" id="svg_559"/><path d="" fill="#082A47" id="svg_560"/><path d="" fill="#082A43" id="svg_561"/><path d="" fill="#082A47" id="svg_562"/><path d="" fill="#0F2B38" id="svg_563"/><path d="" fill="#082A43" id="svg_564"/><path d="" fill="#052B49" id="svg_565"/><path d="" fill="#032C49" id="svg_566"/><path d="" fill="#082A43" id="svg_567"/><path d="" fill="#002D4D" id="svg_568"/><path d="" fill="#012947" id="svg_569"/><path d="" fill="#082A45" id="svg_570"/><path d="" fill="#072F4D" id="svg_571"/><path d="" fill="#092D48" id="svg_572"/><path d="" fill="#042E46" id="svg_573"/><path d="" fill="#0A2E49" id="svg_574"/><path d="" fill="#05304B" id="svg_575"/><path d="" fill="#1C2534" id="svg_576"/><path d="" fill="#032D43" id="svg_577"/><path d="" fill="#032C47" id="svg_578"/><path d="" fill="#062C41" id="svg_579"/><path d="" fill="#082A43" id="svg_580"/><path d="" fill="#0B2A3F" id="svg_581"/><path d="" fill="#0B2943" id="svg_582"/><path d="" fill="#0D273E" id="svg_583"/><path d="" fill="#022A4A" id="svg_584"/><path d="" fill="#082540" id="svg_585"/><path d="" fill="#062C4A" id="svg_586"/><path d="" fill="#10253E" id="svg_587"/><path d="" fill="#082940" id="svg_588"/><path d="" fill="#082748" id="svg_589"/><path d="" fill="#0E2939" id="svg_590"/><path d="" fill="#062B43" id="svg_591"/><path d="" fill="#0E2F44" id="svg_592"/><path d="" fill="#082A43" id="svg_593"/><path d="" fill="#052B49" id="svg_594"/><path d="" fill="#072942" id="svg_595"/><path d="" fill="#0B283E" id="svg_596"/><path d="" fill="#092B46" id="svg_597"/><path d="" fill="#172432" id="svg_598"/><path d="" fill="#0E2A42" id="svg_599"/><path d="" fill="#435A69" id="svg_600"/><path d="" fill="#032A48" id="svg_601"/><path d="" fill="#072C48" id="svg_602"/><path d="" fill="#162C49" id="svg_603"/><path d="" fill="#052A44" id="svg_604"/><path d="" fill="#132536" id="svg_605"/><path d="" fill="#002C4F" id="svg_606"/><path d="" fill="#546471" id="svg_607"/><path d="" fill="#072741" id="svg_608"/><path d="" fill="#0C2639" id="svg_609"/><path d="" fill="#1D253B" id="svg_610"/><path d="" fill="#082A43" id="svg_611"/><path d="" fill="#0B2B42" id="svg_612"/><path d="" fill="#ABB4B3" id="svg_613"/><path d="" fill="#052C45" id="svg_614"/><path d="" fill="#052C45" id="svg_615"/><path d="" fill="#082A47" id="svg_616"/><path d="" fill="#13364F" id="svg_617"/><path d="" fill="#BDC2C9" id="svg_618"/><path d="" fill="#082844" id="svg_619"/><path d="" fill="#0E2A3E" id="svg_620"/><path d="" fill="#062238" id="svg_621"/><path d="" fill="#072A40" id="svg_622"/><path d="" fill="#152733" id="svg_623"/><path d="" fill="#3B576E" id="svg_624"/><path d="" fill="#0B2845" id="svg_625"/><path d="" fill="#4A6880" id="svg_626"/><path d="" fill="#000C1C" id="svg_627"/><path d="" fill="#3F8D99" id="svg_628"/><path d="" fill="#20262F" id="svg_629"/><path d="" fill="#242335" id="svg_630"/><path d="" fill="#082B41" id="svg_631"/><path d="" fill="#1D4963" id="svg_632"/><path d="" fill="#08294B" id="svg_633"/><path d="" fill="#062B47" id="svg_634"/><path d="" fill="#0C2A4E" id="svg_635"/><path d="" fill="#0B2847" id="svg_636"/><path d="" fill="#39C0C9" id="svg_637"/><path d="" fill="#132737" id="svg_638"/><path d="" fill="#042D4C" id="svg_639"/><path d="" fill="#092A43" id="svg_640"/><path d="" fill="#092A3F" id="svg_641"/><path d="" fill="#0B2F4C" id="svg_642"/><path d="" fill="#072E46" id="svg_643"/><path d="" fill="#052B47" id="svg_644"/><path d="" fill="#092849" id="svg_645"/><path d="" fill="#082F4B" id="svg_646"/><path d="" fill="#052B47" id="svg_647"/><path d="" fill="#012C4D" id="svg_648"/><path d="" fill="#0B2943" id="svg_649"/><path d="" fill="#052B47" id="svg_650"/><path d="" fill="#0D293F" id="svg_651"/><path d="" fill="#052C43" id="svg_652"/><path d="" fill="#112A3A" id="svg_653"/><path d="" fill="#092A43" id="svg_654"/><path d="" fill="#052B47" id="svg_655"/><path d="" fill="#0B2B42" id="svg_656"/><path d="" fill="#232321" id="svg_657"/><path d="" fill="#062B47" id="svg_658"/><path d="" fill="#0D293F" id="svg_659"/><path d="" fill="#10283B" id="svg_660"/><path d="" fill="#0A2746" id="svg_661"/><path d="" fill="#0E2841" id="svg_662"/><path d="" fill="#062B43" id="svg_663"/><path d="" fill="#062548" id="svg_664"/><path d="" fill="#0E233C" id="svg_665"/><path d="" fill="#082A47" id="svg_666"/><path d="" fill="#012C4D" id="svg_667"/><path d="" fill="#112839" id="svg_668"/><path d="" fill="#062A49" id="svg_669"/><path d="" fill="#10263C" id="svg_670"/><path d="" fill="#0B2941" id="svg_671"/><path d="" fill="#162731" id="svg_672"/><path d="" fill="#0B2941" id="svg_673"/><path d="" fill="#03294C" id="svg_674"/><path d="" fill="#082A47" id="svg_675"/><path d="" fill="#05284E" id="svg_676"/><path d="" fill="#082A43" id="svg_677"/><path d="" fill="#082A47" id="svg_678"/><path d="" fill="#07274E" id="svg_679"/><path d="" fill="#0A2C48" id="svg_680"/><path d="" fill="#052A44" id="svg_681"/><path d="" fill="#062B47" id="svg_682"/><path d="" fill="#082949" id="svg_683"/><path d="" fill="#102D4A" id="svg_684"/><path d="" fill="#082B41" id="svg_685"/><path d="" fill="#052B47" id="svg_686"/><path d="" fill="#112746" id="svg_687"/><path d="" fill="#0B2943" id="svg_688"/><path d="" fill="#052B47" id="svg_689"/><path d="" fill="#052B49" id="svg_690"/><path d="" fill="#082949" id="svg_691"/><path d="" fill="#092947" id="svg_692"/><path d="" fill="#062C48" id="svg_693"/><path d="" fill="#072C44" id="svg_694"/><path d="" fill="#062C4C" id="svg_695"/><path d="" fill="#09284D" id="svg_696"/><path d="" fill="#092A41" id="svg_697"/><path d="" fill="#092C44" id="svg_698"/><path d="" fill="#032B4F" id="svg_699"/><path d="" fill="#062853" id="svg_700"/><path d="" fill="#062A4B" id="svg_701"/><path d="" fill="#092945" id="svg_702"/><path d="" fill="#082949" id="svg_703"/><path d="" fill="#0B2C3C" id="svg_704"/><path d="" fill="#012B51" id="svg_705"/><path d="" fill="#14273E" id="svg_706"/><path d="" fill="#092E44" id="svg_707"/><path d="" fill="#0E2944" id="svg_708"/><path d="" fill="#052C43" id="svg_709"/><path d="" fill="#2A242A" id="svg_710"/><path d="" fill="#092849" id="svg_711"/><path d="" fill="#072C44" id="svg_712"/><path d="" fill="#062B45" id="svg_713"/><path d="" fill="#062B45" id="svg_714"/><path d="" fill="#032A46" id="svg_715"/><path d="" fill="#052A44" id="svg_716"/><path d="" fill="#032850" id="svg_717"/><path d="" fill="#052C45" id="svg_718"/><path d="" fill="#0D293F" id="svg_719"/><path d="" fill="#052B47" id="svg_720"/><path d="" fill="#072848" id="svg_721"/><path d="" fill="#1A232E" id="svg_722"/><path d="" fill="#062B47" id="svg_723"/><path d="" fill="#072D40" id="svg_724"/><path d="" fill="#0D2546" id="svg_725"/><path d="" fill="#0B376A" id="svg_726"/><path d="" fill="#052745" id="svg_727"/><path d="" fill="#092A43" id="svg_728"/><path d="" fill="#0E2F51" id="svg_729"/><path d="" fill="#082A47" id="svg_730"/><path d="" fill="#0E283D" id="svg_731"/><path d="" fill="#0F2A3A" id="svg_732"/><path d="" fill="#132938" id="svg_733"/><path d="" fill="#092A3F" id="svg_734"/><path d="" fill="#05294A" id="svg_735"/><path d="" fill="#0E2946" id="svg_736"/><path d="" fill="#072C44" id="svg_737"/><path d="" fill="#132831" id="svg_738"/><path d="" fill="#23212F" id="svg_739"/><path d="" fill="#082B3F" id="svg_740"/><path d="" fill="#0C2B40" id="svg_741"/></g></svg>